SubSource-HROTd_VROTdd_SLENx_SANGn.ufo
<glyph name="exclam" format="2">
  <advance width="261"/>
  <unicode hex="0021"/>
  <outline>
    <contour>
      <point x="83" y="532" type="curve" smooth="yes"/>
      <point x="62" y="481"/>
      <point x="57" y="449"/>
      <point x="57" y="419" type="curve" smooth="yes"/>
      <point x="57" y="348"/>
      <point x="57" y="291"/>
      <point x="57" y="244" type="curve" smooth="yes"/>
      <point x="57" y="242"/>
      <point x="58" y="221"/>
      <point x="59" y="221" type="curve" smooth="yes"/>
      <point x="113" y="180"/>
      <point x="58" y="108"/>
      <point x="5" y="149" type="curve" smooth="yes"/>
      <point x="-18" y="167"/>
      <point x="-33" y="199"/>
      <point x="-33" y="244" type="curve" smooth="yes"/>
      <point x="-33" y="315"/>
      <point x="-33" y="372"/>
      <point x="-33" y="419" type="curve" smooth="yes"/>
      <point x="-33" y="457"/>
      <point x="-28" y="501"/>
      <point x="1" y="568" type="curve" smooth="yes"/>
      <point x="27" y="630"/>
      <point x="110" y="595"/>
    </contour>
    <contour>
      <point x="13" y="-125" type="curve" smooth="yes"/>
      <point x="-71" y="-112"/>
      <point x="-71" y="-4"/>
      <point x="13" y="9" type="curve" smooth="yes"/>
      <point x="80" y="18"/>
      <point x="93" y="-71"/>
      <point x="27" y="-81" type="curve" smooth="yes"/>
      <point x="24" y="-81"/>
      <point x="24" y="-35"/>
      <point x="27" y="-35" type="curve" smooth="yes"/>
      <point x="93" y="-45"/>
      <point x="80" y="-134"/>
    </contour>
  </outline>
</glyph>
<glyph name="asterisk" format="2">
  <advance width="614"/>
  <unicode hex="002A"/>
  <outline>
    <contour>
      <point x="115" y="521" type="curve" smooth="yes"/>
      <point x="101" y="424"/>
      <point x="112" y="338"/>
      <point x="139" y="290" type="curve" smooth="yes"/>
      <point x="167" y="241"/>
      <point x="216" y="213"/>
      <point x="285" y="205" type="curve" smooth="yes"/>
      <point x="352" y="197"/>
      <point x="342" y="107"/>
      <point x="275" y="115" type="curve" smooth="yes"/>
      <point x="174" y="127"/>
      <point x="102" y="173"/>
      <point x="61" y="246" type="curve" smooth="yes"/>
      <point x="26" y="308"/>
      <point x="9" y="409"/>
      <point x="25" y="533" type="curve" smooth="yes"/>
      <point x="34" y="600"/>
      <point x="124" y="588"/>
    </contour>
    <contour>
      <point x="386" y="571" type="curve" smooth="yes"/>
      <point x="319" y="477"/>
      <point x="307" y="442"/>
      <point x="292" y="402" type="curve" smooth="yes"/>
      <point x="275" y="358"/>
      <point x="252" y="305"/>
      <point x="155" y="182" type="curve" smooth="yes"/>
      <point x="114" y="129"/>
      <point x="43" y="185"/>
      <point x="85" y="238" type="curve" smooth="yes"/>
      <point x="172" y="349"/>
      <point x="193" y="394"/>
      <point x="208" y="434" type="curve" smooth="yes"/>
      <point x="225" y="478"/>
      <point x="239" y="521"/>
      <point x="314" y="623" type="curve" smooth="yes"/>
      <point x="353" y="678"/>
      <point x="426" y="625"/>
    </contour>
    <contour>
      <point x="385" y="299" type="curve" smooth="yes"/>
      <point x="216" y="299"/>
      <point x="79" y="299"/>
      <point x="-35" y="299" type="curve" smooth="yes"/>
      <point x="-102" y="299"/>
      <point x="-102" y="389"/>
      <point x="-35" y="389" type="curve" smooth="yes"/>
      <point x="134" y="389"/>
      <point x="271" y="389"/>
      <point x="385" y="389" type="curve" smooth="yes"/>
      <point x="453" y="389"/>
      <point x="453" y="299"/>
    </contour>
  </outline>
</glyph>
<glyph name="plus" format="2">
  <advance width="540"/>
  <unicode hex="002B"/>
  <outline>
    <contour>
      <point x="188" y="409" type="curve" smooth="yes"/>
      <point x="244" y="323"/>
      <point x="249" y="182"/>
      <point x="193" y="-18" type="curve" smooth="yes"/>
      <point x="175" y="-83"/>
      <point x="88" y="-59"/>
      <point x="107" y="6" type="curve" smooth="yes"/>
      <point x="151" y="163"/>
      <point x="156" y="292"/>
      <point x="112" y="359" type="curve" smooth="yes"/>
      <point x="75" y="416"/>
      <point x="151" y="465"/>
    </contour>
    <contour>
      <point x="352" y="145" type="curve" smooth="yes"/>
      <point x="156" y="89"/>
      <point x="19" y="95"/>
      <point x="-65" y="151" type="curve" smooth="yes"/>
      <point x="-121" y="188"/>
      <point x="-71" y="263"/>
      <point x="-15" y="225" type="curve" smooth="yes"/>
      <point x="50" y="182"/>
      <point x="175" y="188"/>
      <point x="328" y="231" type="curve" smooth="yes"/>
      <point x="393" y="250"/>
      <point x="417" y="163"/>
    </contour>
  </outline>
</glyph>
<glyph name="comma" format="2">
  <advance width="269"/>
  <unicode hex="002C"/>
  <outline>
    <contour>
      <point x="-48" y="-212" type="curve" smooth="yes"/>
      <point x="-39" y="-176"/>
      <point x="-24" y="-98"/>
      <point x="-35" y="-37" type="curve" smooth="yes"/>
      <point x="-48" y="29"/>
      <point x="41" y="46"/>
      <point x="53" y="-21" type="curve" smooth="yes"/>
      <point x="68" y="-98"/>
      <point x="51" y="-190"/>
      <point x="38" y="-236" type="curve" smooth="yes"/>
      <point x="21" y="-301"/>
      <point x="-66" y="-278"/>
    </contour>
  </outline>
</glyph>
<glyph name="period" format="2">
  <advance width="260"/>
  <unicode hex="002E"/>
  <outline>
    <contour>
      <point x="-2" y="-125" type="curve" smooth="yes"/>
      <point x="-28" y="-114"/>
      <point x="-53" y="-77"/>
      <point x="-27" y="-12" type="curve" smooth="yes"/>
      <point x="-2" y="50"/>
      <point x="82" y="17"/>
      <point x="57" y="-46" type="curve" smooth="yes"/>
      <point x="56" y="-48"/>
      <point x="31" y="-41"/>
      <point x="32" y="-41" type="curve" smooth="yes"/>
      <point x="94" y="-66"/>
      <point x="61" y="-150"/>
    </contour>
  </outline>
</glyph>
<glyph name="two" format="2">
  <advance width="505"/>
  <unicode hex="0032"/>
  <outline>
    <contour>
      <point x="3" y="567" type="curve" smooth="yes"/>
      <point x="34" y="568"/>
      <point x="74" y="576"/>
      <point x="155" y="568" type="curve" smooth="yes"/>
      <point x="243" y="559"/>
      <point x="337" y="495"/>
      <point x="337" y="382" type="curve" smooth="yes"/>
      <point x="337" y="297"/>
      <point x="294" y="242"/>
      <point x="205" y="142" type="curve" smooth="yes"/>
      <point x="140" y="71"/>
      <point x="90" y="18"/>
      <point x="48" y="-27" type="curve" smooth="yes"/>
      <point x="44" y="-31"/>
      <point x="84" y="29"/>
      <point x="89" y="29" type="curve" smooth="yes"/>
      <point x="186" y="29"/>
      <point x="164" y="-30"/>
      <point x="216" y="-30" type="curve" smooth="yes"/>
      <point x="246" y="-30"/>
      <point x="277" y="-24"/>
      <point x="306" y="-13" type="curve" smooth="yes"/>
      <point x="370" y="11"/>
      <point x="401" y="-74"/>
      <point x="338" y="-97" type="curve" smooth="yes"/>
      <point x="297" y="-112"/>
      <point x="256" y="-120"/>
      <point x="216" y="-120" type="curve" smooth="yes"/>
      <point x="114" y="-120"/>
      <point x="138" y="-61"/>
      <point x="89" y="-61" type="curve" smooth="yes"/>
      <point x="-39" y="-61"/>
      <point x="-105" y="-58"/>
      <point x="-18" y="35" type="curve" smooth="yes"/>
      <point x="24" y="80"/>
      <point x="74" y="131"/>
      <point x="137" y="202" type="curve" smooth="yes"/>
      <point x="201" y="272"/>
      <point x="247" y="322"/>
      <point x="247" y="382" type="curve" smooth="yes"/>
      <point x="247" y="443"/>
      <point x="193" y="473"/>
      <point x="145" y="478" type="curve" smooth="yes"/>
      <point x="74" y="486"/>
      <point x="34" y="478"/>
      <point x="7" y="477" type="curve" smooth="yes"/>
      <point x="-61" y="475"/>
      <point x="-64" y="565"/>
    </contour>
  </outline>
</glyph>
<glyph name="three" format="2">
  <advance width="488"/>
  <unicode hex="0033"/>
  <outline>
    <contour>
      <point x="26" y="9" type="curve" smooth="yes"/>
      <point x="55" y="-13"/>
      <point x="87" y="-28"/>
      <point x="125" y="-31" type="curve" smooth="yes"/>
      <point x="191" y="-37"/>
      <point x="234" y="4"/>
      <point x="254" y="94" type="curve" smooth="yes"/>
      <point x="274" y="183"/>
      <point x="255" y="262"/>
      <point x="219" y="271" type="curve" smooth="yes"/>
      <point x="192" y="278"/>
      <point x="184" y="278"/>
      <point x="164" y="279" type="curve" smooth="yes"/>
      <point x="150" y="280"/>
      <point x="-74" y="177"/>
      <point x="50" y="326" type="curve" smooth="yes"/>
      <point x="64" y="342"/>
      <point x="77" y="357"/>
      <point x="98" y="381" type="curve" smooth="yes"/>
      <point x="117" y="403"/>
      <point x="147" y="436"/>
      <point x="203" y="497" type="curve" smooth="yes"/>
      <point x="210" y="504"/>
      <point x="277" y="543"/>
      <point x="269" y="541" type="curve" smooth="yes"/>
      <point x="155" y="516"/>
      <point x="29" y="469"/>
      <point x="-30" y="470" type="curve" smooth="yes"/>
      <point x="-97" y="471"/>
      <point x="-96" y="561"/>
      <point x="-28" y="560" type="curve" smooth="yes"/>
      <point x="17" y="559"/>
      <point x="103" y="597"/>
      <point x="249" y="629" type="curve" smooth="yes"/>
      <point x="414" y="665"/>
      <point x="406" y="581"/>
      <point x="269" y="435" type="curve" smooth="yes"/>
      <point x="213" y="376"/>
      <point x="185" y="343"/>
      <point x="166" y="321" type="curve" smooth="yes"/>
      <point x="145" y="297"/>
      <point x="132" y="282"/>
      <point x="120" y="268" type="curve" smooth="yes"/>
      <point x="114" y="262"/>
      <point x="-123" y="384"/>
      <point x="168" y="369" type="curve" smooth="yes"/>
      <point x="194" y="368"/>
      <point x="207" y="368"/>
      <point x="241" y="359" type="curve" smooth="yes"/>
      <point x="311" y="341"/>
      <point x="381" y="245"/>
      <point x="342" y="74" type="curve" smooth="yes"/>
      <point x="310" y="-69"/>
      <point x="222" y="-131"/>
      <point x="117" y="-121" type="curve" smooth="yes"/>
      <point x="63" y="-116"/>
      <point x="15" y="-95"/>
      <point x="-28" y="-63" type="curve" smooth="yes"/>
      <point x="-82" y="-22"/>
      <point x="-28" y="50"/>
    </contour>
  </outline>
</glyph>
<glyph name="five" format="2">
  <advance width="501"/>
  <unicode hex="0035"/>
  <outline>
    <contour>
      <point x="316" y="503" type="curve" smooth="yes"/>
      <point x="261" y="482"/>
      <point x="231" y="475"/>
      <point x="195" y="471" type="curve" smooth="yes"/>
      <point x="141" y="465"/>
      <point x="91" y="467"/>
      <point x="62" y="484" type="curve" smooth="yes"/>
      <point x="60" y="486"/>
      <point x="91" y="487"/>
      <point x="90" y="484" type="curve" smooth="yes"/>
      <point x="77" y="437"/>
      <point x="71" y="422"/>
      <point x="62" y="385" type="curve" smooth="yes"/>
      <point x="50" y="343"/>
      <point x="48" y="325"/>
      <point x="44" y="286" type="curve" smooth="yes"/>
      <point x="43" y="283"/>
      <point x="88" y="356"/>
      <point x="91" y="357" type="curve" smooth="yes"/>
      <point x="134" y="371"/>
      <point x="160" y="372"/>
      <point x="196" y="372" type="curve" smooth="yes"/>
      <point x="330" y="372"/>
      <point x="374" y="250"/>
      <point x="345" y="77" type="curve" smooth="yes"/>
      <point x="317" y="-94"/>
      <point x="225" y="-141"/>
      <point x="108" y="-129" type="curve" smooth="yes"/>
      <point x="66" y="-124"/>
      <point x="16" y="-114"/>
      <point x="-37" y="-93" type="curve" smooth="yes"/>
      <point x="-99" y="-68"/>
      <point x="-66" y="16"/>
      <point x="-3" y="-9" type="curve" smooth="yes"/>
      <point x="40" y="-26"/>
      <point x="82" y="-36"/>
      <point x="118" y="-39" type="curve" smooth="yes"/>
      <point x="195" y="-47"/>
      <point x="237" y="-22"/>
      <point x="257" y="93" type="curve" smooth="yes"/>
      <point x="273" y="188"/>
      <point x="271" y="282"/>
      <point x="196" y="282" type="curve" smooth="yes"/>
      <point x="170" y="282"/>
      <point x="152" y="282"/>
      <point x="119" y="271" type="curve" smooth="yes"/>
      <point x="2" y="234"/>
      <point x="-55" y="196"/>
      <point x="-46" y="294" type="curve" smooth="yes"/>
      <point x="-42" y="339"/>
      <point x="-38" y="361"/>
      <point x="-26" y="407" type="curve" smooth="yes"/>
      <point x="-15" y="446"/>
      <point x="-9" y="463"/>
      <point x="4" y="508" type="curve" smooth="yes"/>
      <point x="26" y="589"/>
      <point x="65" y="588"/>
      <point x="108" y="562" type="curve" smooth="yes"/>
      <point x="117" y="556"/>
      <point x="169" y="559"/>
      <point x="187" y="561" type="curve" smooth="yes"/>
      <point x="215" y="563"/>
      <point x="239" y="570"/>
      <point x="284" y="587" type="curve" smooth="yes"/>
      <point x="347" y="611"/>
      <point x="379" y="527"/>
    </contour>
  </outline>
</glyph>
<glyph name="eight" format="2">
  <advance width="535"/>
  <unicode hex="0038"/>
  <outline>
    <contour>
      <point x="26" y="-137" type="curve" smooth="yes"/>
      <point x="-25" y="-78"/>
      <point x="-74" y="-7"/>
      <point x="-65" y="96" type="curve" smooth="yes"/>
      <point x="-53" y="234"/>
      <point x="116" y="374"/>
      <point x="239" y="374" type="curve" smooth="yes"/>
      <point x="246" y="374"/>
      <point x="274" y="368"/>
      <point x="272" y="372" type="curve" smooth="yes"/>
      <point x="256" y="423"/>
      <point x="217" y="479"/>
      <point x="149" y="479" type="curve" smooth="yes"/>
      <point x="81" y="479"/>
      <point x="39" y="440"/>
      <point x="36" y="374" type="curve" smooth="yes"/>
      <point x="33" y="308"/>
      <point x="54" y="254"/>
      <point x="118" y="254" type="curve" smooth="yes"/>
      <point x="247" y="254"/>
      <point x="366" y="211"/>
      <point x="370" y="83" type="curve" smooth="yes"/>
      <point x="372" y="-10"/>
      <point x="318" y="-90"/>
      <point x="193" y="-149" type="curve" smooth="yes"/>
      <point x="132" y="-177"/>
      <point x="94" y="-96"/>
      <point x="155" y="-67" type="curve" smooth="yes"/>
      <point x="238" y="-28"/>
      <point x="282" y="19"/>
      <point x="280" y="81" type="curve" smooth="yes"/>
      <point x="278" y="151"/>
      <point x="189" y="164"/>
      <point x="118" y="164" type="curve" smooth="yes"/>
      <point x="1" y="164"/>
      <point x="-59" y="258"/>
      <point x="-54" y="378" type="curve" smooth="yes"/>
      <point x="-49" y="492"/>
      <point x="33" y="569"/>
      <point x="149" y="569" type="curve" smooth="yes"/>
      <point x="262" y="569"/>
      <point x="332" y="483"/>
      <point x="358" y="400" type="curve" smooth="yes"/>
      <point x="387" y="308"/>
      <point x="371" y="284"/>
      <point x="239" y="284" type="curve" smooth="yes"/>
      <point x="160" y="284"/>
      <point x="33" y="176"/>
      <point x="25" y="88" type="curve" smooth="yes"/>
      <point x="18" y="15"/>
      <point x="57" y="-36"/>
      <point x="94" y="-77" type="curve" smooth="yes"/>
      <point x="138" y="-128"/>
      <point x="71" y="-187"/>
    </contour>
  </outline>
</glyph>
<glyph name="greater" format="2">
  <advance width="447"/>
  <unicode hex="003E"/>
  <outline>
    <contour>
      <point x="-28" y="83" type="curve" smooth="yes"/>
      <point x="10" y="98"/>
      <point x="56" y="124"/>
      <point x="142" y="178" type="curve" smooth="yes"/>
      <point x="199" y="215"/>
      <point x="236" y="227"/>
      <point x="194" y="264" type="curve" smooth="yes"/>
      <point x="145" y="309"/>
      <point x="23" y="270"/>
      <point x="-55" y="316" type="curve" smooth="yes"/>
      <point x="-113" y="351"/>
      <point x="-67" y="428"/>
      <point x="-9" y="394" type="curve" smooth="yes"/>
      <point x="39" y="365"/>
      <point x="175" y="403"/>
      <point x="254" y="332" type="curve" smooth="yes"/>
      <point x="348" y="248"/>
      <point x="318" y="184"/>
      <point x="190" y="102" type="curve" smooth="yes"/>
      <point x="94" y="42"/>
      <point x="48" y="16"/>
      <point x="4" y="-1" type="curve" smooth="yes"/>
      <point x="-59" y="-25"/>
      <point x="-91" y="58"/>
    </contour>
  </outline>
</glyph>
<glyph name="at" format="2">
  <advance width="956"/>
  <unicode hex="0040"/>
  <outline>
    <contour>
      <point x="555" y="308" type="curve" smooth="yes"/>
      <point x="555" y="254"/>
      <point x="555" y="189"/>
      <point x="555" y="144" type="curve" smooth="yes"/>
      <point x="555" y="22"/>
      <point x="472" y="-63"/>
      <point x="362" y="-63" type="curve" smooth="yes"/>
      <point x="251" y="-63"/>
      <point x="168" y="25"/>
      <point x="168" y="147" type="curve" smooth="yes"/>
      <point x="168" y="264"/>
      <point x="253" y="358"/>
      <point x="383" y="386" type="curve" smooth="yes"/>
      <point x="525" y="416"/>
      <point x="655" y="377"/>
      <point x="655" y="250" type="curve" smooth="yes"/>
      <point x="655" y="206"/>
      <point x="658" y="74"/>
      <point x="672" y="66" type="curve" smooth="yes"/>
      <point x="684" y="58"/>
      <point x="702" y="163"/>
      <point x="702" y="192" type="curve" smooth="yes"/>
      <point x="702" y="363"/>
      <point x="572" y="479"/>
      <point x="380" y="479" type="curve" smooth="yes"/>
      <point x="180" y="479"/>
      <point x="37" y="336"/>
      <point x="37" y="140" type="curve" smooth="yes"/>
      <point x="37" y="-60"/>
      <point x="175" y="-184"/>
      <point x="368" y="-184" type="curve" smooth="yes"/>
      <point x="421" y="-184"/>
      <point x="476" y="-174"/>
      <point x="571" y="-117" type="curve" smooth="yes"/>
      <point x="629" y="-83"/>
      <point x="675" y="-160"/>
      <point x="617" y="-195" type="curve" smooth="yes"/>
      <point x="502" y="-262"/>
      <point x="431" y="-274"/>
      <point x="368" y="-274" type="curve" smooth="yes"/>
      <point x="127" y="-274"/>
      <point x="-53" y="-110"/>
      <point x="-53" y="140" type="curve" smooth="yes"/>
      <point x="-53" y="386"/>
      <point x="130" y="569"/>
      <point x="380" y="569" type="curve" smooth="yes"/>
      <point x="624" y="569"/>
      <point x="792" y="410"/>
      <point x="792" y="192" type="curve" smooth="yes"/>
      <point x="792" y="9"/>
      <point x="696" y="-55"/>
      <point x="626" y="-12" type="curve" smooth="yes"/>
      <point x="576" y="19"/>
      <point x="565" y="94"/>
      <point x="565" y="250" type="curve" smooth="yes"/>
      <point x="565" y="313"/>
      <point x="472" y="313"/>
      <point x="401" y="298" type="curve" smooth="yes"/>
      <point x="317" y="280"/>
      <point x="258" y="224"/>
      <point x="258" y="147" type="curve" smooth="yes"/>
      <point x="258" y="77"/>
      <point x="299" y="27"/>
      <point x="362" y="27" type="curve" smooth="yes"/>
      <point x="424" y="27"/>
      <point x="465" y="74"/>
      <point x="465" y="144" type="curve" smooth="yes"/>
      <point x="465" y="211"/>
      <point x="465" y="272"/>
      <point x="465" y="308" type="curve" smooth="yes"/>
      <point x="465" y="376"/>
      <point x="555" y="376"/>
    </contour>
  </outline>
</glyph>
<glyph name="C" format="2">
  <advance width="600"/>
  <unicode hex="0043"/>
  <outline>
    <contour>
      <point x="452" y="-42" type="curve" smooth="yes"/>
      <point x="373" y="-101"/>
      <point x="292" y="-127"/>
      <point x="233" y="-128" type="curve" smooth="yes"/>
      <point x="63" y="-129"/>
      <point x="-75" y="4"/>
      <point x="-75" y="220" type="curve" smooth="yes"/>
      <point x="-75" y="436"/>
      <point x="67" y="569"/>
      <point x="236" y="568" type="curve"/>
      <point x="289" y="568"/>
      <point x="360" y="565"/>
      <point x="432" y="553" type="curve" smooth="yes"/>
      <point x="499" y="543"/>
      <point x="485" y="454"/>
      <point x="418" y="465" type="curve" smooth="yes"/>
      <point x="352" y="475"/>
      <point x="285" y="478"/>
      <point x="236" y="478" type="curve" smooth="yes"/>
      <point x="111" y="479"/>
      <point x="15" y="380"/>
      <point x="15" y="220" type="curve" smooth="yes"/>
      <point x="15" y="60"/>
      <point x="107" y="-39"/>
      <point x="231" y="-38" type="curve" smooth="yes"/>
      <point x="276" y="-37"/>
      <point x="339" y="-15"/>
      <point x="398" y="30" type="curve" smooth="yes"/>
      <point x="452" y="71"/>
      <point x="506" y="-1"/>
    </contour>
  </outline>
</glyph>
<glyph name="H" format="2">
  <advance width="688"/>
  <unicode hex="0048"/>
  <outline>
    <contour>
      <point x="77" y="532" type="curve" smooth="yes"/>
      <point x="50" y="470"/>
      <point x="51" y="439"/>
      <point x="51" y="404" type="curve" smooth="yes"/>
      <point x="51" y="283"/>
      <point x="51" y="117"/>
      <point x="51" y="10" type="curve" smooth="yes"/>
      <point x="51" y="0"/>
      <point x="81" y="119"/>
      <point x="81" y="127" type="curve" smooth="yes"/>
      <point x="81" y="183"/>
      <point x="81" y="226"/>
      <point x="81" y="264" type="curve" smooth="yes"/>
      <point x="81" y="354"/>
      <point x="148" y="399"/>
      <point x="216" y="399" type="curve" smooth="yes"/>
      <point x="321" y="399"/>
      <point x="404" y="399"/>
      <point x="474" y="399" type="curve" smooth="yes"/>
      <point x="510" y="399"/>
      <point x="519" y="411"/>
      <point x="519" y="444" type="curve" smooth="yes"/>
      <point x="519" y="487"/>
      <point x="519" y="521"/>
      <point x="519" y="550" type="curve" smooth="yes"/>
      <point x="519" y="559"/>
      <point x="489" y="439"/>
      <point x="489" y="430" type="curve" smooth="yes"/>
      <point x="489" y="270"/>
      <point x="489" y="75"/>
      <point x="489" y="37" type="curve" smooth="yes"/>
      <point x="489" y="34"/>
      <point x="485" y="-6"/>
      <point x="487" y="-7" type="curve" smooth="yes"/>
      <point x="552" y="-26"/>
      <point x="526" y="-112"/>
      <point x="461" y="-93" type="curve" smooth="yes"/>
      <point x="409" y="-77"/>
      <point x="399" y="-31"/>
      <point x="399" y="37" type="curve" smooth="yes"/>
      <point x="399" y="93"/>
      <point x="399" y="323"/>
      <point x="399" y="430" type="curve" smooth="yes"/>
      <point x="399" y="617"/>
      <point x="609" y="737"/>
      <point x="609" y="550" type="curve" smooth="yes"/>
      <point x="609" y="507"/>
      <point x="609" y="473"/>
      <point x="609" y="444" type="curve" smooth="yes"/>
      <point x="609" y="363"/>
      <point x="563" y="309"/>
      <point x="474" y="309" type="curve" smooth="yes"/>
      <point x="369" y="309"/>
      <point x="286" y="309"/>
      <point x="216" y="309" type="curve" smooth="yes"/>
      <point x="190" y="309"/>
      <point x="171" y="298"/>
      <point x="171" y="264" type="curve" smooth="yes"/>
      <point x="171" y="208"/>
      <point x="171" y="165"/>
      <point x="171" y="127" type="curve" smooth="yes"/>
      <point x="171" y="-47"/>
      <point x="-39" y="-191"/>
      <point x="-39" y="10" type="curve" smooth="yes"/>
      <point x="-39" y="170"/>
      <point x="-39" y="323"/>
      <point x="-39" y="404" type="curve" smooth="yes"/>
      <point x="-39" y="447"/>
      <point x="-38" y="492"/>
      <point x="-5" y="568" type="curve" smooth="yes"/>
      <point x="22" y="630"/>
      <point x="104" y="594"/>
    </contour>
  </outline>
</glyph>
<glyph name="T" format="2">
  <advance width="498"/>
  <unicode hex="0054"/>
  <outline>
    <contour>
      <point x="303" y="470" type="curve" smooth="yes"/>
      <point x="192" y="470"/>
      <point x="98" y="470"/>
      <point x="24" y="470" type="curve" smooth="yes"/>
      <point x="-158" y="470"/>
      <point x="-29" y="682"/>
      <point x="136" y="682" type="curve" smooth="yes"/>
      <point x="248" y="682"/>
      <point x="244" y="565"/>
      <point x="197" y="397" type="curve" smooth="yes"/>
      <point x="168" y="288"/>
      <point x="173" y="151"/>
      <point x="173" y="80" type="curve" smooth="yes"/>
      <point x="173" y="48"/>
      <point x="176" y="-23"/>
      <point x="182" y="-29" type="curve" smooth="yes"/>
      <point x="228" y="-78"/>
      <point x="162" y="-140"/>
      <point x="116" y="-91" type="curve" smooth="yes"/>
      <point x="95" y="-69"/>
      <point x="83" y="-33"/>
      <point x="83" y="80" type="curve" smooth="yes"/>
      <point x="83" y="159"/>
      <point x="78" y="300"/>
      <point x="111" y="421" type="curve" smooth="yes"/>
      <point x="118" y="449"/>
      <point x="155" y="592"/>
      <point x="136" y="592" type="curve" smooth="yes"/>
      <point x="128" y="592"/>
      <point x="16" y="560"/>
      <point x="24" y="560" type="curve" smooth="yes"/>
      <point x="135" y="560"/>
      <point x="229" y="560"/>
      <point x="303" y="560" type="curve" smooth="yes"/>
      <point x="371" y="560"/>
      <point x="371" y="470"/>
    </contour>
  </outline>
</glyph>
<glyph name="Z" format="2">
  <advance width="595"/>
  <unicode hex="005A"/>
  <outline>
    <contour>
      <point x="20" y="577" type="curve" smooth="yes"/>
      <point x="51" y="566"/>
      <point x="146" y="560"/>
      <point x="203" y="560" type="curve" smooth="yes"/>
      <point x="236" y="560"/>
      <point x="248" y="560"/>
      <point x="289" y="564" type="curve" smooth="yes"/>
      <point x="341" y="568"/>
      <point x="616" y="707"/>
      <point x="488" y="527" type="curve" smooth="yes"/>
      <point x="461" y="490"/>
      <point x="449" y="473"/>
      <point x="426" y="442" type="curve" smooth="yes"/>
      <point x="392" y="397"/>
      <point x="278" y="238"/>
      <point x="246" y="192" type="curve" smooth="yes"/>
      <point x="222" y="159"/>
      <point x="202" y="133"/>
      <point x="184" y="107" type="curve" smooth="yes"/>
      <point x="180" y="102"/>
      <point x="67" y="-25"/>
      <point x="74" y="-25" type="curve" smooth="yes"/>
      <point x="105" y="-28"/>
      <point x="122" y="-30"/>
      <point x="162" y="-30" type="curve" smooth="yes"/>
      <point x="226" y="-30"/>
      <point x="291" y="-30"/>
      <point x="381" y="-11" type="curve" smooth="yes"/>
      <point x="447" y="3"/>
      <point x="465" y="-85"/>
      <point x="399" y="-99" type="curve" smooth="yes"/>
      <point x="303" y="-120"/>
      <point x="232" y="-120"/>
      <point x="162" y="-120" type="curve" smooth="yes"/>
      <point x="118" y="-120"/>
      <point x="99" y="-118"/>
      <point x="64" y="-115" type="curve" smooth="yes"/>
      <point x="-87" y="-98"/>
      <point x="17" y="20"/>
      <point x="110" y="159" type="curve" smooth="yes"/>
      <point x="130" y="186"/>
      <point x="150" y="211"/>
      <point x="172" y="244" type="curve" smooth="yes"/>
      <point x="204" y="290"/>
      <point x="320" y="449"/>
      <point x="354" y="496" type="curve" smooth="yes"/>
      <point x="377" y="527"/>
      <point x="388" y="542"/>
      <point x="414" y="579" type="curve" smooth="yes"/>
      <point x="429" y="600"/>
      <point x="735" y="512"/>
      <point x="297" y="474" type="curve" smooth="yes"/>
      <point x="254" y="470"/>
      <point x="238" y="470"/>
      <point x="203" y="470" type="curve" smooth="yes"/>
      <point x="127" y="470"/>
      <point x="31" y="478"/>
      <point x="-10" y="493" type="curve" smooth="yes"/>
      <point x="-74" y="516"/>
      <point x="-43" y="600"/>
    </contour>
  </outline>
</glyph>
<glyph name="bracketright" format="2">
  <advance width="430"/>
  <unicode hex="005D"/>
  <outline>
    <contour>
      <point x="-35" y="-188" type="curve" smooth="yes"/>
      <point x="152" y="-188" type="line"/>
      <point x="107" y="-233" type="line"/>
      <point x="107" y="603" type="line"/>
      <point x="152" y="558" type="line"/>
      <point x="-35" y="558" type="line" smooth="yes"/>
      <point x="-102" y="558"/>
      <point x="-102" y="648"/>
      <point x="-35" y="648" type="curve" smooth="yes"/>
      <point x="152" y="648" type="line" smooth="yes"/>
      <point x="177" y="648"/>
      <point x="197" y="628"/>
      <point x="197" y="603" type="curve" smooth="yes"/>
      <point x="197" y="-233" type="line" smooth="yes"/>
      <point x="197" y="-258"/>
      <point x="177" y="-278"/>
      <point x="152" y="-278" type="curve" smooth="yes"/>
      <point x="-35" y="-278" type="line" smooth="yes"/>
      <point x="-102" y="-278"/>
      <point x="-102" y="-188"/>
    </contour>
  </outline>
</glyph>
<glyph name="asciicircum" format="2">
  <advance width="560"/>
  <unicode hex="005E"/>
  <outline>
    <contour>
      <point x="-48" y="203" type="curve" smooth="yes"/>
      <point x="-16" y="269"/>
      <point x="18" y="335"/>
      <point x="59" y="422" type="curve" smooth="yes"/>
      <point x="132" y="580"/>
      <point x="179" y="586"/>
      <point x="259" y="421" type="curve" smooth="yes"/>
      <point x="291" y="351"/>
      <point x="327" y="300"/>
      <point x="396" y="287" type="curve" smooth="yes"/>
      <point x="462" y="274"/>
      <point x="445" y="186"/>
      <point x="378" y="199" type="curve" smooth="yes"/>
      <point x="281" y="218"/>
      <point x="224" y="283"/>
      <point x="177" y="381" type="curve" smooth="yes"/>
      <point x="154" y="429"/>
      <point x="162" y="430"/>
      <point x="141" y="384" type="curve" smooth="yes"/>
      <point x="100" y="296"/>
      <point x="64" y="229"/>
      <point x="32" y="163" type="curve" smooth="yes"/>
      <point x="3" y="103"/>
      <point x="-78" y="142"/>
    </contour>
  </outline>
</glyph>
<glyph name="c" format="2">
  <advance width="475"/>
  <unicode hex="0063"/>
  <outline>
    <contour>
      <point x="326" y="-45" type="curve" smooth="yes"/>
      <point x="317" y="-45"/>
      <point x="279" y="-46"/>
      <point x="242" y="-45" type="curve" smooth="yes"/>
      <point x="134" y="-44"/>
      <point x="-36" y="-45"/>
      <point x="-164" y="-45" type="curve" smooth="yes"/>
      <point x="-207" y="-45"/>
      <point x="-492" y="45"/>
      <point x="-187" y="45" type="curve" smooth="yes"/>
      <point x="-141" y="45"/>
      <point x="-80" y="45"/>
      <point x="-35" y="45" type="curve" smooth="yes"/>
      <point x="33" y="45"/>
      <point x="33" y="-45"/>
      <point x="-35" y="-45" type="curve" smooth="yes"/>
      <point x="-102" y="-45"/>
      <point x="-156" y="-45"/>
      <point x="-187" y="-45" type="curve" smooth="yes"/>
      <point x="-227" y="-45"/>
      <point x="-489" y="45"/>
      <point x="-164" y="45" type="curve" smooth="yes"/>
      <point x="-32" y="45"/>
      <point x="138" y="46"/>
      <point x="244" y="45" type="curve" smooth="yes"/>
      <point x="279" y="44"/>
      <point x="317" y="45"/>
      <point x="326" y="45" type="curve" smooth="yes"/>
      <point x="394" y="45"/>
      <point x="394" y="-45"/>
    </contour>
  </outline>
</glyph>
<glyph name="d" format="2">
  <advance width="584"/>
  <unicode hex="0064"/>
  <outline>
    <contour>
      <point x="407" y="574" type="curve" smooth="yes"/>
      <point x="398" y="541"/>
      <point x="396" y="515"/>
      <point x="401" y="484" type="curve" smooth="yes"/>
      <point x="419" y="383"/>
      <point x="519" y="428"/>
      <point x="519" y="237" type="curve" smooth="yes"/>
      <point x="519" y="90"/>
      <point x="323" y="-107"/>
      <point x="167" y="-130" type="curve" smooth="yes"/>
      <point x="5" y="-155"/>
      <point x="-81" y="-23"/>
      <point x="-81" y="129" type="curve" smooth="yes"/>
      <point x="-81" y="280"/>
      <point x="22" y="388"/>
      <point x="159" y="388" type="curve" smooth="yes"/>
      <point x="295" y="388"/>
      <point x="389" y="273"/>
      <point x="389" y="121" type="curve" smooth="yes"/>
      <point x="389" y="76"/>
      <point x="389" y="22"/>
      <point x="389" y="-1" type="curve" smooth="yes"/>
      <point x="389" y="-26"/>
      <point x="392" y="-52"/>
      <point x="399" y="-69" type="curve" smooth="yes"/>
      <point x="426" y="-131"/>
      <point x="344" y="-167"/>
      <point x="317" y="-105" type="curve" smooth="yes"/>
      <point x="304" y="-77"/>
      <point x="299" y="-42"/>
      <point x="299" y="-1" type="curve" smooth="yes"/>
      <point x="299" y="33"/>
      <point x="299" y="91"/>
      <point x="299" y="121" type="curve" smooth="yes"/>
      <point x="299" y="219"/>
      <point x="247" y="298"/>
      <point x="159" y="298" type="curve" smooth="yes"/>
      <point x="70" y="298"/>
      <point x="9" y="228"/>
      <point x="9" y="129" type="curve" smooth="yes"/>
      <point x="9" y="32"/>
      <point x="50" y="-57"/>
      <point x="153" y="-42" type="curve" smooth="yes"/>
      <point x="263" y="-25"/>
      <point x="429" y="134"/>
      <point x="429" y="237" type="curve" smooth="yes"/>
      <point x="429" y="378"/>
      <point x="337" y="332"/>
      <point x="313" y="470" type="curve" smooth="yes"/>
      <point x="306" y="513"/>
      <point x="308" y="551"/>
      <point x="321" y="598" type="curve" smooth="yes"/>
      <point x="339" y="663"/>
      <point x="425" y="639"/>
    </contour>
  </outline>
</glyph>
<glyph name="e" format="2">
  <advance width="548"/>
  <unicode hex="0065"/>
  <outline>
    <contour>
      <point x="152" y="214" type="curve" smooth="yes"/>
      <point x="158" y="197"/>
      <point x="104" y="244"/>
      <point x="317" y="244" type="curve" smooth="yes"/>
      <point x="323" y="244"/>
      <point x="293" y="189"/>
      <point x="292" y="194" type="curve" smooth="yes"/>
      <point x="279" y="259"/>
      <point x="229" y="298"/>
      <point x="162" y="298" type="curve" smooth="yes"/>
      <point x="71" y="298"/>
      <point x="9" y="230"/>
      <point x="9" y="128" type="curve" smooth="yes"/>
      <point x="9" y="20"/>
      <point x="77" y="-41"/>
      <point x="171" y="-41" type="curve" smooth="yes"/>
      <point x="214" y="-41"/>
      <point x="261" y="-26"/>
      <point x="335" y="27" type="curve" smooth="yes"/>
      <point x="390" y="66"/>
      <point x="442" y="-7"/>
      <point x="387" y="-47" type="curve" smooth="yes"/>
      <point x="291" y="-115"/>
      <point x="227" y="-131"/>
      <point x="171" y="-131" type="curve" smooth="yes"/>
      <point x="31" y="-131"/>
      <point x="-81" y="-34"/>
      <point x="-81" y="128" type="curve" smooth="yes"/>
      <point x="-81" y="283"/>
      <point x="25" y="388"/>
      <point x="162" y="388" type="curve" smooth="yes"/>
      <point x="273" y="388"/>
      <point x="359" y="319"/>
      <point x="380" y="210" type="curve" smooth="yes"/>
      <point x="399" y="111"/>
      <point x="449" y="154"/>
      <point x="317" y="154" type="curve" smooth="yes"/>
      <point x="277" y="154"/>
      <point x="101" y="92"/>
      <point x="68" y="184" type="curve" smooth="yes"/>
      <point x="45" y="247"/>
      <point x="129" y="278"/>
    </contour>
  </outline>
</glyph>
<glyph name="g" format="2">
  <advance width="556"/>
  <unicode hex="0067"/>
  <outline>
    <contour>
      <point x="18" y="-175" type="curve" smooth="yes"/>
      <point x="126" y="-228"/>
      <point x="280" y="-199"/>
      <point x="280" y="-71" type="curve" smooth="yes"/>
      <point x="280" y="23"/>
      <point x="280" y="97"/>
      <point x="280" y="160" type="curve" smooth="yes"/>
      <point x="280" y="242"/>
      <point x="224" y="298"/>
      <point x="144" y="298" type="curve" smooth="yes"/>
      <point x="65" y="298"/>
      <point x="9" y="240"/>
      <point x="9" y="158" type="curve" smooth="yes"/>
      <point x="9" y="80"/>
      <point x="113" y="66"/>
      <point x="206" y="85" type="curve" smooth="yes"/>
      <point x="304" y="105"/>
      <point x="404" y="190"/>
      <point x="391" y="257" type="curve" smooth="yes"/>
      <point x="380" y="313"/>
      <point x="379" y="380"/>
      <point x="401" y="469" type="curve" smooth="yes"/>
      <point x="417" y="534"/>
      <point x="505" y="513"/>
      <point x="489" y="447" type="curve" smooth="yes"/>
      <point x="471" y="374"/>
      <point x="470" y="321"/>
      <point x="479" y="275" type="curve" smooth="yes"/>
      <point x="501" y="163"/>
      <point x="385" y="29"/>
      <point x="224" y="-3" type="curve" smooth="yes"/>
      <point x="60" y="-36"/>
      <point x="-81" y="20"/>
      <point x="-81" y="158" type="curve" smooth="yes"/>
      <point x="-81" y="290"/>
      <point x="17" y="388"/>
      <point x="144" y="388" type="curve" smooth="yes"/>
      <point x="273" y="388"/>
      <point x="370" y="292"/>
      <point x="370" y="160" type="curve" smooth="yes"/>
      <point x="370" y="66"/>
      <point x="370" y="-8"/>
      <point x="370" y="-71" type="curve" smooth="yes"/>
      <point x="370" y="-269"/>
      <point x="147" y="-338"/>
      <point x="-22" y="-257" type="curve" smooth="yes"/>
      <point x="-82" y="-227"/>
      <point x="-43" y="-146"/>
    </contour>
  </outline>
</glyph>
<glyph name="o" format="2">
  <advance width="577"/>
  <unicode hex="006F"/>
  <outline>
    <contour>
      <point x="139.52537580193422" y="-89.97582794334016" type="curve" smooth="yes"/>
      <point x="62.294518333398145" y="-87.4436686795477"/>
      <point x="7.466764384569465" y="-74.75447784190602"/>
      <point x="-32.54915533919037" y="-29.99090136692777" type="curve" smooth="yes"/>
      <point x="-67.21999302342738" y="8.793430090244568"/>
      <point x="-81.00000067083896" y="65.72765779161335"/>
      <point x="-80.99999874345312" y="129.00000321371377" type="curve" smooth="yes"/>
      <point x="-80.99999418887514" y="278.51797879003044"/>
      <point x="25.716769845637973" y="387.999998583529"/>
      <point x="168.0000046682619" y="387.999998583529" type="curve" smooth="yes"/>
      <point x="311.3456481366222" y="387.999998583529"/>
      <point x="417.99999957714755" y="278.36857013666673"/>
      <point x="417.9999950271207" y="129.00000047215698" type="curve" smooth="yes"/>
      <point x="417.99999324171426" y="70.38856790268922"/>
      <point x="397.56590348010553" y="14.488094081261263"/>
      <point x="374.1279091808326" y="-22.90108212282702" type="curve" smooth="yes"/>
      <point x="343.50031503083426" y="-71.75938030993392"/>
      <point x="313.9410209470416" y="-85.74422272823891"/>
      <point x="264.73703801663254" y="-89.84455462869774" type="curve" smooth="yes"/>
      <point x="197.47019933392556" y="-95.45012450469382"/>
      <point x="189.99610616593083" y="-5.761006261084486"/>
      <point x="257.2629448486378" y="-0.1554363850884073" type="curve" smooth="yes"/>
      <point x="279.71703653114577" y="1.7157379170373153"/>
      <point x="283.8952624463902" y="2.6047502326767678"/>
      <point x="297.8720742022873" y="24.90108970780075" type="curve" smooth="yes"/>
      <point x="313.61958430216504" y="50.02211424522249"/>
      <point x="327.9999938275426" y="89.6201776804077"/>
      <point x="327.9999950271207" y="129.00000321371377" type="curve" smooth="yes"/>
      <point x="327.99999803115435" y="227.61661286414974"/>
      <point x="262.64013812311566" y="297.999998583529"/>
      <point x="168.0000046682619" y="297.999998583529" type="curve" smooth="yes"/>
      <point x="74.2958633379501" y="297.999998583529"/>
      <point x="9.000004256076728" y="227.46875915824748"/>
      <point x="9.000001256546831" y="129.00000047215698" type="curve" smooth="yes"/>
      <point x="9.00000016115591" y="93.04043760265637"/>
      <point x="14.84467672856202" y="52.03320243745291"/>
      <point x="34.54914886607022" y="29.990908982363205" type="curve" smooth="yes"/>
      <point x="56.88651626542661" y="5.003342515483388"/>
      <point x="99.36341772977822" y="1.3893186683088843"/>
      <point x="142.4746107187451" y="-0.024163070445986534" type="curve" smooth="yes"/>
      <point x="209.93835937341572" y="-2.236089258054241"/>
      <point x="206.98912445660483" y="-92.18775413094842"/>
    </contour>
  </outline>
</glyph>
<glyph name="q" format="2">
  <advance width="584"/>
  <unicode hex="0071"/>
  <outline>
    <contour>
      <point x="411" y="-132" type="curve" smooth="yes"/>
      <point x="425" y="-82"/>
      <point x="429" y="-44"/>
      <point x="429" y="-8" type="curve" smooth="yes"/>
      <point x="429" y="42"/>
      <point x="430" y="133"/>
      <point x="424" y="212" type="curve" smooth="yes"/>
      <point x="415" y="332"/>
      <point x="272" y="314"/>
      <point x="160" y="289" type="curve" smooth="yes"/>
      <point x="41" y="263"/>
      <point x="9" y="233"/>
      <point x="9" y="128" type="curve" smooth="yes"/>
      <point x="9" y="29"/>
      <point x="70" y="-41"/>
      <point x="159" y="-41" type="curve" smooth="yes"/>
      <point x="247" y="-41"/>
      <point x="309" y="29"/>
      <point x="309" y="128" type="curve" smooth="yes"/>
      <point x="309" y="224"/>
      <point x="309" y="293"/>
      <point x="331" y="370" type="curve" smooth="yes"/>
      <point x="349" y="435"/>
      <point x="435" y="411"/>
      <point x="417" y="346" type="curve" smooth="yes"/>
      <point x="399" y="279"/>
      <point x="399" y="212"/>
      <point x="399" y="128" type="curve" smooth="yes"/>
      <point x="399" y="-23"/>
      <point x="295" y="-131"/>
      <point x="159" y="-131" type="curve" smooth="yes"/>
      <point x="22" y="-131"/>
      <point x="-81" y="-23"/>
      <point x="-81" y="128" type="curve" smooth="yes"/>
      <point x="-81" y="273"/>
      <point x="-25" y="341"/>
      <point x="140" y="377" type="curve" smooth="yes"/>
      <point x="316" y="416"/>
      <point x="499" y="407"/>
      <point x="514" y="218" type="curve" smooth="yes"/>
      <point x="520" y="137"/>
      <point x="519" y="44"/>
      <point x="519" y="-8" type="curve" smooth="yes"/>
      <point x="519" y="-50"/>
      <point x="515" y="-98"/>
      <point x="497" y="-158" type="curve" smooth="yes"/>
      <point x="478" y="-222"/>
      <point x="392" y="-197"/>
    </contour>
  </outline>
</glyph>
<glyph name="r" format="2">
  <advance width="389"/>
  <unicode hex="0072"/>
  <outline>
    <contour>
      <point x="275" y="347" type="curve" smooth="yes"/>
      <point x="72" y="296"/>
      <point x="37" y="245"/>
      <point x="37" y="142" type="curve" smooth="yes"/>
      <point x="37" y="109"/>
      <point x="31" y="43"/>
      <point x="31" y="9" type="curve" smooth="yes"/>
      <point x="31" y="0"/>
      <point x="59" y="118"/>
      <point x="60" y="128" type="curve" smooth="yes"/>
      <point x="65" y="174"/>
      <point x="65" y="228"/>
      <point x="60" y="262" type="curve" smooth="yes"/>
      <point x="52" y="323"/>
      <point x="27" y="358"/>
      <point x="63" y="464" type="curve" smooth="yes"/>
      <point x="85" y="527"/>
      <point x="171" y="498"/>
      <point x="149" y="434" type="curve" smooth="yes"/>
      <point x="121" y="355"/>
      <point x="144" y="320"/>
      <point x="150" y="274" type="curve" smooth="yes"/>
      <point x="155" y="234"/>
      <point x="155" y="174"/>
      <point x="150" y="120" type="curve" smooth="yes"/>
      <point x="130" y="-82"/>
      <point x="-59" y="-178"/>
      <point x="-59" y="9" type="curve" smooth="yes"/>
      <point x="-59" y="47"/>
      <point x="-53" y="113"/>
      <point x="-53" y="142" type="curve" smooth="yes"/>
      <point x="-53" y="275"/>
      <point x="-9" y="368"/>
      <point x="253" y="435" type="curve" smooth="yes"/>
      <point x="318" y="451"/>
      <point x="340" y="364"/>
    </contour>
  </outline>
</glyph>
<glyph name="s" format="2">
  <advance width="462"/>
  <unicode hex="0073"/>
  <outline>
    <contour>
      <point x="254" y="287" type="curve" smooth="yes"/>
      <point x="187" y="288"/>
      <point x="146" y="298"/>
      <point x="109" y="298" type="curve" smooth="yes"/>
      <point x="63" y="297"/>
      <point x="21" y="281"/>
      <point x="21" y="241" type="curve" smooth="yes"/>
      <point x="21" y="200"/>
      <point x="72" y="184"/>
      <point x="120" y="175" type="curve" smooth="yes"/>
      <point x="233" y="156"/>
      <point x="321" y="130"/>
      <point x="321" y="32" type="curve" smooth="yes"/>
      <point x="321" y="-54"/>
      <point x="227" y="-131"/>
      <point x="124" y="-131" type="curve" smooth="yes"/>
      <point x="61" y="-131"/>
      <point x="16" y="-91"/>
      <point x="-24" y="-28" type="curve" smooth="yes"/>
      <point x="-60" y="29"/>
      <point x="16" y="77"/>
      <point x="52" y="20" type="curve" smooth="yes"/>
      <point x="71" y="-9"/>
      <point x="95" y="-41"/>
      <point x="124" y="-41" type="curve" smooth="yes"/>
      <point x="170" y="-41"/>
      <point x="231" y="-7"/>
      <point x="231" y="32" type="curve" smooth="yes"/>
      <point x="231" y="69"/>
      <point x="148" y="79"/>
      <point x="106" y="87" type="curve" smooth="yes"/>
      <point x="1" y="104"/>
      <point x="-69" y="154"/>
      <point x="-69" y="241" type="curve" smooth="yes"/>
      <point x="-69" y="330"/>
      <point x="6" y="387"/>
      <point x="109" y="388" type="curve" smooth="yes"/>
      <point x="150" y="388"/>
      <point x="197" y="378"/>
      <point x="256" y="377" type="curve" smooth="yes"/>
      <point x="323" y="376"/>
      <point x="322" y="286"/>
    </contour>
  </outline>
</glyph>
<glyph name="v" format="2">
  <advance width="489"/>
  <unicode hex="0076"/>
  <outline>
    <contour>
      <point x="14" y="365" type="curve" smooth="yes"/>
      <point x="18" y="291"/>
      <point x="24" y="252"/>
      <point x="37" y="221" type="curve" smooth="yes"/>
      <point x="68" y="142"/>
      <point x="86" y="92"/>
      <point x="118" y="15" type="curve" smooth="yes"/>
      <point x="141" y="-41"/>
      <point x="161" y="11"/>
      <point x="182" y="64" type="curve" smooth="yes"/>
      <point x="210" y="135"/>
      <point x="191" y="148"/>
      <point x="214" y="223" type="curve" smooth="yes"/>
      <point x="224" y="258"/>
      <point x="245" y="294"/>
      <point x="291" y="384" type="curve" smooth="yes"/>
      <point x="322" y="444"/>
      <point x="402" y="403"/>
      <point x="371" y="342" type="curve" smooth="yes"/>
      <point x="337" y="277"/>
      <point x="308" y="224"/>
      <point x="300" y="197" type="curve" smooth="yes"/>
      <point x="281" y="134"/>
      <point x="300" y="117"/>
      <point x="266" y="30" type="curve" smooth="yes"/>
      <point x="209" y="-114"/>
      <point x="98" y="-170"/>
      <point x="36" y="-21" type="curve" smooth="yes"/>
      <point x="2" y="58"/>
      <point x="-16" y="108"/>
      <point x="-47" y="187" type="curve" smooth="yes"/>
      <point x="-62" y="226"/>
      <point x="-72" y="270"/>
      <point x="-76" y="361" type="curve" smooth="yes"/>
      <point x="-79" y="428"/>
      <point x="11" y="433"/>
    </contour>
  </outline>
</glyph>
<glyph name="x" format="2">
  <advance width="499"/>
  <unicode hex="0078"/>
  <outline>
    <contour>
      <point x="34" y="372" type="curve" smooth="yes"/>
      <point x="43" y="344"/>
      <point x="58" y="311"/>
      <point x="78" y="296" type="curve" smooth="yes"/>
      <point x="125" y="259"/>
      <point x="214" y="148"/>
      <point x="285" y="31" type="curve" smooth="yes"/>
      <point x="298" y="9"/>
      <point x="314" y="-9"/>
      <point x="336" y="-19" type="curve" smooth="yes"/>
      <point x="396" y="-49"/>
      <point x="357" y="-130"/>
      <point x="296" y="-101" type="curve" smooth="yes"/>
      <point x="260" y="-83"/>
      <point x="232" y="-55"/>
      <point x="207" y="-15" type="curve" smooth="yes"/>
      <point x="148" y="84"/>
      <point x="63" y="193"/>
      <point x="22" y="224" type="curve" smooth="yes"/>
      <point x="-12" y="251"/>
      <point x="-35" y="295"/>
      <point x="-52" y="344" type="curve" smooth="yes"/>
      <point x="-73" y="408"/>
      <point x="12" y="436"/>
    </contour>
    <contour>
      <point x="325" y="309" type="curve" smooth="yes"/>
      <point x="295" y="272"/>
      <point x="262" y="233"/>
      <point x="228" y="194" type="curve" smooth="yes"/>
      <point x="133" y="82"/>
      <point x="65" y="-7"/>
      <point x="43" y="-42" type="curve" smooth="yes"/>
      <point x="32" y="-59"/>
      <point x="12" y="-85"/>
      <point x="-1" y="-105" type="curve" smooth="yes"/>
      <point x="-38" y="-161"/>
      <point x="-113" y="-111"/>
      <point x="-75" y="-55" type="curve" smooth="yes"/>
      <point x="-60" y="-32"/>
      <point x="-42" y="-9"/>
      <point x="-33" y="6" type="curve" smooth="yes"/>
      <point x="-9" y="43"/>
      <point x="59" y="134"/>
      <point x="160" y="252" type="curve" smooth="yes"/>
      <point x="190" y="289"/>
      <point x="223" y="328"/>
      <point x="257" y="367" type="curve" smooth="yes"/>
      <point x="300" y="419"/>
      <point x="369" y="361"/>
    </contour>
    <contour>
      <point x="126" y="486" type="curve" smooth="yes"/>
      <point x="149" y="457"/>
      <point x="172" y="427"/>
      <point x="195" y="398" type="curve" smooth="yes"/>
      <point x="210" y="379"/>
      <point x="224" y="360"/>
      <point x="238" y="343" type="curve" smooth="yes"/>
      <point x="291" y="275"/>
      <point x="289" y="230"/>
      <point x="237" y="165" type="curve" smooth="yes"/>
      <point x="221" y="145"/>
      <point x="205" y="124"/>
      <point x="189" y="104" type="curve" smooth="yes"/>
      <point x="168" y="79"/>
      <point x="141" y="42"/>
      <point x="118" y="12" type="curve" smooth="yes"/>
      <point x="76" y="-41"/>
      <point x="5" y="14"/>
      <point x="46" y="68" type="curve" smooth="yes"/>
      <point x="71" y="100"/>
      <point x="98" y="135"/>
      <point x="119" y="160" type="curve" smooth="yes"/>
      <point x="135" y="180"/>
      <point x="151" y="201"/>
      <point x="167" y="221" type="curve" smooth="yes"/>
      <point x="192" y="253"/>
      <point x="193" y="254"/>
      <point x="166" y="287" type="curve" smooth="yes"/>
      <point x="152" y="306"/>
      <point x="138" y="325"/>
      <point x="125" y="342" type="curve" smooth="yes"/>
      <point x="102" y="371"/>
      <point x="79" y="401"/>
      <point x="56" y="430" type="curve" smooth="yes"/>
      <point x="14" y="483"/>
      <point x="84" y="539"/>
    </contour>
  </outline>
</glyph>
<glyph name="bar" format="2">
  <advance width="315"/>
  <unicode hex="007C"/>
  <outline>
    <contour>
      <point x="109" y="621" type="curve" smooth="yes"/>
      <point x="88" y="575"/>
      <point x="83" y="532"/>
      <point x="83" y="483" type="curve" smooth="yes"/>
      <point x="83" y="228"/>
      <point x="83" y="83"/>
      <point x="83" y="-87" type="curve" smooth="yes"/>
      <point x="83" y="-92"/>
      <point x="86" y="-156"/>
      <point x="88" y="-156" type="curve" smooth="yes"/>
      <point x="154" y="-172"/>
      <point x="134" y="-259"/>
      <point x="68" y="-244" type="curve" smooth="yes"/>
      <point x="21" y="-233"/>
      <point x="-7" y="-194"/>
      <point x="-7" y="-87" type="curve" smooth="yes"/>
      <point x="-7" y="166"/>
      <point x="-7" y="312"/>
      <point x="-7" y="483" type="curve" smooth="yes"/>
      <point x="-7" y="544"/>
      <point x="0" y="599"/>
      <point x="27" y="659" type="curve" smooth="yes"/>
      <point x="55" y="720"/>
      <point x="137" y="683"/>
    </contour>
  </outline>
</glyph>
<glyph name="braceright" format="2">
  <advance width="466"/>
  <unicode hex="007D"/>
  <outline>
    <contour>
      <point x="-21" y="-185" type="curve" smooth="yes"/>
      <point x="21" y="-200"/>
      <point x="59" y="-202"/>
      <point x="88" y="-192" type="curve" smooth="yes"/>
      <point x="115" y="-183"/>
      <point x="130" y="-162"/>
      <point x="130" y="-130" type="curve" smooth="yes"/>
      <point x="130" y="-69"/>
      <point x="72" y="20"/>
      <point x="72" y="100" type="curve" smooth="yes"/>
      <point x="72" y="170"/>
      <point x="114" y="229"/>
      <point x="220" y="229" type="curve" smooth="yes"/>
      <point x="225" y="229"/>
      <point x="345" y="259"/>
      <point x="340" y="259" type="curve" smooth="yes"/>
      <point x="253" y="259"/>
      <point x="194" y="265"/>
      <point x="154" y="283" type="curve" smooth="yes"/>
      <point x="70" y="318"/>
      <point x="130" y="461"/>
      <point x="130" y="499" type="curve" smooth="yes"/>
      <point x="130" y="534"/>
      <point x="113" y="554"/>
      <point x="82" y="563" type="curve" smooth="yes"/>
      <point x="55" y="570"/>
      <point x="18" y="567"/>
      <point x="-21" y="554" type="curve" smooth="yes"/>
      <point x="-85" y="533"/>
      <point x="-113" y="619"/>
      <point x="-49" y="640" type="curve" smooth="yes"/>
      <point x="10" y="659"/>
      <point x="63" y="660"/>
      <point x="106" y="649" type="curve" smooth="yes"/>
      <point x="175" y="630"/>
      <point x="220" y="576"/>
      <point x="220" y="499" type="curve" smooth="yes"/>
      <point x="220" y="58"/>
      <point x="182" y="368"/>
      <point x="190" y="365" type="curve" smooth="yes"/>
      <point x="219" y="353"/>
      <point x="276" y="349"/>
      <point x="340" y="349" type="curve" smooth="yes"/>
      <point x="484" y="349"/>
      <point x="361" y="139"/>
      <point x="220" y="139" type="curve" smooth="yes"/>
      <point x="176" y="139"/>
      <point x="162" y="129"/>
      <point x="162" y="100" type="curve" smooth="yes"/>
      <point x="162" y="41"/>
      <point x="220" y="-46"/>
      <point x="220" y="-130" type="curve" smooth="yes"/>
      <point x="220" y="-203"/>
      <point x="179" y="-257"/>
      <point x="116" y="-278" type="curve" smooth="yes"/>
      <point x="71" y="-292"/>
      <point x="15" y="-292"/>
      <point x="-49" y="-271" type="curve" smooth="yes"/>
      <point x="-113" y="-249"/>
      <point x="-84" y="-164"/>
    </contour>
  </outline>
</glyph>
<glyph name="asciitilde" format="2">
  <advance width="639"/>
  <unicode hex="007E"/>
  <outline>
    <contour>
      <point x="506" y="306" type="curve" smooth="yes"/>
      <point x="467" y="148"/>
      <point x="397" y="54"/>
      <point x="308" y="54" type="curve" smooth="yes"/>
      <point x="250" y="54"/>
      <point x="210" y="95"/>
      <point x="166" y="151" type="curve" smooth="yes"/>
      <point x="148" y="173"/>
      <point x="114" y="219"/>
      <point x="90" y="219" type="curve" smooth="yes"/>
      <point x="57" y="219"/>
      <point x="65" y="195"/>
      <point x="79" y="165" type="curve" smooth="yes"/>
      <point x="107" y="104"/>
      <point x="25" y="66"/>
      <point x="-3" y="127" type="curve" smooth="yes"/>
      <point x="-47" y="223"/>
      <point x="-15" y="309"/>
      <point x="90" y="309" type="curve" smooth="yes"/>
      <point x="151" y="309"/>
      <point x="189" y="265"/>
      <point x="236" y="207" type="curve" smooth="yes"/>
      <point x="253" y="186"/>
      <point x="286" y="144"/>
      <point x="308" y="144" type="curve" smooth="yes"/>
      <point x="355" y="144"/>
      <point x="398" y="244"/>
      <point x="418" y="328" type="curve" smooth="yes"/>
      <point x="434" y="393"/>
      <point x="522" y="372"/>
    </contour>
  </outline>
</glyph>
<glyph name="exclamdown" format="2">
  <advance width="261"/>
  <unicode hex="00A1"/>
  <outline>
    <contour>
      <point x="57" y="175" type="curve" smooth="yes"/>
      <point x="57" y="-180" type="line" smooth="yes"/>
      <point x="57" y="-247"/>
      <point x="-33" y="-247"/>
      <point x="-33" y="-180" type="curve" smooth="yes"/>
      <point x="-33" y="175" type="line" smooth="yes"/>
      <point x="-33" y="243"/>
      <point x="57" y="243"/>
    </contour>
    <contour>
      <point x="13" y="331" type="curve" smooth="yes"/>
      <point x="-71" y="344"/>
      <point x="-71" y="452"/>
      <point x="13" y="465" type="curve" smooth="yes"/>
      <point x="80" y="474"/>
      <point x="93" y="385"/>
      <point x="27" y="375" type="curve" smooth="yes"/>
      <point x="24" y="375"/>
      <point x="24" y="421"/>
      <point x="27" y="421" type="curve" smooth="yes"/>
      <point x="93" y="411"/>
      <point x="80" y="322"/>
    </contour>
  </outline>
</glyph>
<glyph name="currency" format="2">
  <advance width="646"/>
  <unicode hex="00A4"/>
  <outline>
    <contour>
      <point x="130" y="27" type="curve" smooth="yes"/>
      <point x="50" y="54"/>
      <point x="-4" y="128"/>
      <point x="-4" y="225" type="curve" smooth="yes"/>
      <point x="-4" y="346"/>
      <point x="81" y="434"/>
      <point x="201" y="434" type="curve" smooth="yes"/>
      <point x="321" y="434"/>
      <point x="409" y="346"/>
      <point x="409" y="225" type="curve" smooth="yes"/>
      <point x="409" y="128"/>
      <point x="353" y="54"/>
      <point x="273" y="27" type="curve" smooth="yes"/>
      <point x="209" y="6"/>
      <point x="181" y="91"/>
      <point x="245" y="113" type="curve" smooth="yes"/>
      <point x="291" y="128"/>
      <point x="319" y="170"/>
      <point x="319" y="225" type="curve" smooth="yes"/>
      <point x="319" y="296"/>
      <point x="271" y="344"/>
      <point x="201" y="344" type="curve" smooth="yes"/>
      <point x="131" y="344"/>
      <point x="86" y="296"/>
      <point x="86" y="225" type="curve" smooth="yes"/>
      <point x="86" y="170"/>
      <point x="113" y="128"/>
      <point x="158" y="113" type="curve" smooth="yes"/>
      <point x="222" y="91"/>
      <point x="194" y="6"/>
    </contour>
    <contour>
      <point x="129" y="413" type="curve" smooth="yes"/>
      <point x="103" y="440"/>
      <point x="62" y="470"/>
      <point x="33" y="510" type="curve" smooth="yes"/>
      <point x="-6" y="565"/>
      <point x="67" y="617"/>
      <point x="107" y="562" type="curve" smooth="yes"/>
      <point x="129" y="532"/>
      <point x="159" y="511"/>
      <point x="193" y="477" type="curve" smooth="yes"/>
      <point x="241" y="429"/>
      <point x="177" y="365"/>
    </contour>
    <contour>
      <point x="549" y="504" type="curve" smooth="yes"/>
      <point x="512" y="468"/>
      <point x="470" y="425"/>
      <point x="458" y="413" type="curve" smooth="yes"/>
      <point x="410" y="365"/>
      <point x="346" y="429"/>
      <point x="394" y="477" type="curve" smooth="yes"/>
      <point x="412" y="495"/>
      <point x="461" y="543"/>
      <point x="485" y="568" type="curve" smooth="yes"/>
      <point x="533" y="616"/>
      <point x="597" y="552"/>
    </contour>
    <contour>
      <point x="38" y="122" type="curve" smooth="yes"/>
      <point x="75" y="158"/>
      <point x="92" y="176"/>
      <point x="129" y="213" type="curve" smooth="yes"/>
      <point x="177" y="261"/>
      <point x="241" y="197"/>
      <point x="193" y="149" type="curve" smooth="yes"/>
      <point x="138" y="94"/>
      <point x="126" y="83"/>
      <point x="102" y="58" type="curve" smooth="yes"/>
      <point x="54" y="10"/>
      <point x="-10" y="74"/>
    </contour>
    <contour>
      <point x="466" y="201" type="curve" smooth="yes"/>
      <point x="482" y="170"/>
      <point x="516" y="146"/>
      <point x="543" y="127" type="curve" smooth="yes"/>
      <point x="598" y="87"/>
      <point x="546" y="14"/>
      <point x="491" y="53" type="curve" smooth="yes"/>
      <point x="449" y="83"/>
      <point x="410" y="113"/>
      <point x="386" y="161" type="curve" smooth="yes"/>
      <point x="356" y="221"/>
      <point x="436" y="261"/>
    </contour>
  </outline>
</glyph>
<glyph name="logicalnot" format="2">
  <advance width="490"/>
  <unicode hex="00AC"/>
  <outline>
    <contour>
      <point x="18" y="333" type="curve" smooth="yes"/>
      <point x="45" y="312"/>
      <point x="117" y="313"/>
      <point x="166" y="313" type="curve" smooth="yes"/>
      <point x="322" y="313"/>
      <point x="365" y="361"/>
      <point x="365" y="235" type="curve" smooth="yes"/>
      <point x="365" y="190"/>
      <point x="365" y="154"/>
      <point x="365" y="124" type="curve" smooth="yes"/>
      <point x="365" y="56"/>
      <point x="275" y="57"/>
      <point x="275" y="124" type="curve" smooth="yes"/>
      <point x="275" y="169"/>
      <point x="275" y="205"/>
      <point x="275" y="235" type="curve" smooth="yes"/>
      <point x="275" y="241"/>
      <point x="174" y="223"/>
      <point x="166" y="223" type="curve" smooth="yes"/>
      <point x="79" y="223"/>
      <point x="10" y="225"/>
      <point x="-38" y="263" type="curve" smooth="yes"/>
      <point x="-91" y="305"/>
      <point x="-35" y="375"/>
    </contour>
  </outline>
</glyph>
<glyph name="acute" format="2">
  <advance width="408"/>
  <unicode hex="00B4"/>
  <outline>
    <contour>
      <point x="167" y="561" type="curve" smooth="yes"/>
      <point x="140" y="529"/>
      <point x="119" y="503"/>
      <point x="109" y="489" type="curve" smooth="yes"/>
      <point x="72" y="433"/>
      <point x="-3" y="483"/>
      <point x="35" y="539" type="curve" smooth="yes"/>
      <point x="45" y="555"/>
      <point x="66" y="581"/>
      <point x="99" y="619" type="curve" smooth="yes"/>
      <point x="143" y="671"/>
      <point x="211" y="612"/>
    </contour>
  </outline>
</glyph>
<glyph name="periodcentered" format="2">
  <advance width="260"/>
  <unicode hex="00B7"/>
  <outline>
    <contour>
      <point x="13" y="125" type="curve" smooth="yes"/>
      <point x="-71" y="138"/>
      <point x="-71" y="246"/>
      <point x="13" y="259" type="curve" smooth="yes"/>
      <point x="80" y="268"/>
      <point x="93" y="179"/>
      <point x="27" y="169" type="curve" smooth="yes"/>
      <point x="24" y="169"/>
      <point x="24" y="215"/>
      <point x="27" y="215" type="curve" smooth="yes"/>
      <point x="93" y="205"/>
      <point x="80" y="116"/>
    </contour>
  </outline>
</glyph>
<glyph name="cedilla" format="2">
  <advance width="416"/>
  <unicode hex="00B8"/>
  <outline>
    <contour>
      <point x="109" y="-82" type="curve" smooth="yes"/>
      <point x="109" y="-110"/>
      <point x="105" y="-141"/>
      <point x="128" y="-148" type="curve" smooth="yes"/>
      <point x="190" y="-165"/>
      <point x="211" y="-208"/>
      <point x="211" y="-252" type="curve" smooth="yes"/>
      <point x="211" y="-347"/>
      <point x="85" y="-415"/>
      <point x="-6" y="-302" type="curve" smooth="yes"/>
      <point x="-48" y="-250"/>
      <point x="22" y="-193"/>
      <point x="64" y="-246" type="curve" smooth="yes"/>
      <point x="89" y="-277"/>
      <point x="121" y="-278"/>
      <point x="121" y="-252" type="curve" smooth="yes"/>
      <point x="121" y="-241"/>
      <point x="119" y="-239"/>
      <point x="102" y="-234" type="curve" smooth="yes"/>
      <point x="34" y="-214"/>
      <point x="19" y="-166"/>
      <point x="19" y="-82" type="curve" smooth="yes"/>
      <point x="19" y="-14"/>
      <point x="109" y="-15"/>
    </contour>
  </outline>
</glyph>
<glyph name="onehalf" format="2">
  <advance width="940"/>
  <unicode hex="00BD"/>
  <outline>
    <contour>
      <point x="-49" y="541" type="curve" smooth="yes"/>
      <point x="97" y="572"/>
      <point x="115" y="521"/>
      <point x="115" y="432" type="curve" smooth="yes"/>
      <point x="115" y="333"/>
      <point x="115" y="256"/>
      <point x="115" y="191" type="curve" smooth="yes"/>
      <point x="115" y="124"/>
      <point x="25" y="124"/>
      <point x="25" y="191" type="curve" smooth="yes"/>
      <point x="25" y="288"/>
      <point x="25" y="366"/>
      <point x="25" y="432" type="curve" smooth="yes"/>
      <point x="25" y="467"/>
      <point x="27" y="465"/>
      <point x="-31" y="453" type="curve" smooth="yes"/>
      <point x="-97" y="439"/>
      <point x="-115" y="527"/>
    </contour>
    <contour>
      <point x="530" y="496" type="curve" smooth="yes"/>
      <point x="154" y="-104" type="line" smooth="yes"/>
      <point x="118" y="-161"/>
      <point x="42" y="-113"/>
      <point x="78" y="-56" type="curve" smooth="yes"/>
      <point x="454" y="544" type="line" smooth="yes"/>
      <point x="490" y="601"/>
      <point x="566" y="553"/>
    </contour>
    <contour>
      <point x="722" y="-116" type="curve" smooth="yes"/>
      <point x="683" y="-116"/>
      <point x="652" y="-116"/>
      <point x="626" y="-116" type="curve" smooth="yes"/>
      <point x="464" y="-116"/>
      <point x="429" y="-53"/>
      <point x="551" y="43" type="curve" smooth="yes"/>
      <point x="603" y="84"/>
      <point x="663" y="134"/>
      <point x="663" y="162" type="curve" smooth="yes"/>
      <point x="663" y="213"/>
      <point x="582" y="224"/>
      <point x="526" y="190" type="curve" smooth="yes"/>
      <point x="468" y="156"/>
      <point x="422" y="233"/>
      <point x="480" y="268" type="curve" smooth="yes"/>
      <point x="607" y="343"/>
      <point x="753" y="278"/>
      <point x="753" y="162" type="curve" smooth="yes"/>
      <point x="753" y="104"/>
      <point x="713" y="55"/>
      <point x="607" y="-27" type="curve" smooth="yes"/>
      <point x="600" y="-32"/>
      <point x="617" y="-26"/>
      <point x="626" y="-26" type="curve" smooth="yes"/>
      <point x="665" y="-26"/>
      <point x="696" y="-26"/>
      <point x="722" y="-26" type="curve" smooth="yes"/>
      <point x="790" y="-26"/>
      <point x="790" y="-116"/>
    </contour>
  </outline>
</glyph>
<glyph name="germandbls" format="2">
  <advance width="551"/>
  <unicode hex="00DF"/>
  <outline>
    <contour>
      <point x="205" y="-8" type="curve" smooth="yes"/>
      <point x="237" y="-63"/>
      <point x="269" y="28"/>
      <point x="306" y="113" type="curve" smooth="yes"/>
      <point x="343" y="199"/>
      <point x="362" y="287"/>
      <point x="336" y="323" type="curve" smooth="yes"/>
      <point x="328" y="336"/>
      <point x="315" y="341"/>
      <point x="289" y="336" type="curve" smooth="yes"/>
      <point x="284" y="335"/>
      <point x="176" y="332"/>
      <point x="178" y="331" type="curve" smooth="yes"/>
      <point x="181" y="331"/>
      <point x="206" y="347"/>
      <point x="212" y="353" type="curve" smooth="yes"/>
      <point x="233" y="370"/>
      <point x="249" y="393"/>
      <point x="249" y="422" type="curve" smooth="yes"/>
      <point x="249" y="486"/>
      <point x="208" y="528"/>
      <point x="146" y="528" type="curve" smooth="yes"/>
      <point x="100" y="528"/>
      <point x="-1" y="484"/>
      <point x="28" y="449" type="curve" smooth="yes"/>
      <point x="121" y="339"/>
      <point x="105" y="162"/>
      <point x="38" y="-91" type="curve" smooth="yes"/>
      <point x="20" y="-157"/>
      <point x="-67" y="-134"/>
      <point x="-50" y="-69" type="curve" smooth="yes"/>
      <point x="3" y="130"/>
      <point x="32" y="305"/>
      <point x="-40" y="391" type="curve" smooth="yes"/>
      <point x="-127" y="494"/>
      <point x="10" y="618"/>
      <point x="146" y="618" type="curve" smooth="yes"/>
      <point x="256" y="618"/>
      <point x="339" y="536"/>
      <point x="339" y="422" type="curve" smooth="yes"/>
      <point x="339" y="365"/>
      <point x="311" y="318"/>
      <point x="272" y="285" type="curve" smooth="yes"/>
      <point x="232" y="250"/>
      <point x="189" y="239"/>
      <point x="164" y="243" type="curve" smooth="yes"/>
      <point x="101" y="253"/>
      <point x="105" y="394"/>
      <point x="273" y="424" type="curve" smooth="yes"/>
      <point x="344" y="437"/>
      <point x="387" y="408"/>
      <point x="410" y="375" type="curve" smooth="yes"/>
      <point x="451" y="316"/>
      <point x="449" y="217"/>
      <point x="388" y="77" type="curve" smooth="yes"/>
      <point x="294" y="-139"/>
      <point x="210" y="-194"/>
      <point x="127" y="-54" type="curve" smooth="yes"/>
      <point x="93" y="4"/>
      <point x="171" y="50"/>
    </contour>
  </outline>
</glyph>
<glyph name="eth" format="2">
  <advance width="551"/>
  <unicode hex="00F0"/>
  <outline>
    <contour>
      <point x="191" y="608" type="curve" smooth="yes"/>
      <point x="197" y="577"/>
      <point x="207" y="554"/>
      <point x="224" y="537" type="curve" smooth="yes"/>
      <point x="329" y="435"/>
      <point x="392" y="315"/>
      <point x="392" y="147" type="curve" smooth="yes"/>
      <point x="392" y="0"/>
      <point x="299" y="-130"/>
      <point x="150" y="-130" type="curve" smooth="yes"/>
      <point x="15" y="-130"/>
      <point x="-81" y="-30"/>
      <point x="-81" y="117" type="curve" smooth="yes"/>
      <point x="-81" y="259"/>
      <point x="1" y="345"/>
      <point x="146" y="374" type="curve" smooth="yes"/>
      <point x="301" y="405"/>
      <point x="435" y="312"/>
      <point x="494" y="241" type="curve" smooth="yes"/>
      <point x="538" y="189"/>
      <point x="469" y="131"/>
      <point x="426" y="183" type="curve" smooth="yes"/>
      <point x="381" y="236"/>
      <point x="279" y="309"/>
      <point x="164" y="286" type="curve" smooth="yes"/>
      <point x="63" y="265"/>
      <point x="9" y="217"/>
      <point x="9" y="117" type="curve" smooth="yes"/>
      <point x="9" y="22"/>
      <point x="63" y="-40"/>
      <point x="150" y="-40" type="curve" smooth="yes"/>
      <point x="248" y="-40"/>
      <point x="302" y="50"/>
      <point x="302" y="147" type="curve" smooth="yes"/>
      <point x="302" y="289"/>
      <point x="250" y="387"/>
      <point x="160" y="473" type="curve" smooth="yes"/>
      <point x="131" y="502"/>
      <point x="111" y="541"/>
      <point x="103" y="592" type="curve" smooth="yes"/>
      <point x="91" y="659"/>
      <point x="180" y="674"/>
    </contour>
    <contour>
      <point x="318" y="510" type="curve" smooth="yes"/>
      <point x="292" y="521"/>
      <point x="180" y="469"/>
      <point x="87" y="413" type="curve" smooth="yes"/>
      <point x="29" y="379"/>
      <point x="-17" y="456"/>
      <point x="41" y="491" type="curve" smooth="yes"/>
      <point x="217" y="595"/>
      <point x="303" y="614"/>
      <point x="354" y="592" type="curve" smooth="yes"/>
      <point x="416" y="566"/>
      <point x="381" y="483"/>
    </contour>
  </outline>
</glyph>
<glyph name="oslash" format="2">
  <advance width="577"/>
  <unicode hex="00F8"/>
  <outline>
    <contour>
      <point x="140" y="-90" type="curve" smooth="yes"/>
      <point x="63" y="-87"/>
      <point x="8" y="-74"/>
      <point x="-32" y="-30" type="curve" smooth="yes"/>
      <point x="-67" y="9"/>
      <point x="-81" y="66"/>
      <point x="-81" y="129" type="curve" smooth="yes"/>
      <point x="-81" y="279"/>
      <point x="26" y="388"/>
      <point x="168" y="388" type="curve" smooth="yes"/>
      <point x="311" y="388"/>
      <point x="418" y="278"/>
      <point x="418" y="129" type="curve" smooth="yes"/>
      <point x="418" y="70"/>
      <point x="398" y="14"/>
      <point x="374" y="-23" type="curve" smooth="yes"/>
      <point x="344" y="-72"/>
      <point x="314" y="-86"/>
      <point x="265" y="-90" type="curve" smooth="yes"/>
      <point x="197" y="-95"/>
      <point x="190" y="-6"/>
      <point x="257" y="0" type="curve" smooth="yes"/>
      <point x="280" y="2"/>
      <point x="284" y="2"/>
      <point x="298" y="25" type="curve" smooth="yes"/>
      <point x="314" y="50"/>
      <point x="328" y="90"/>
      <point x="328" y="129" type="curve" smooth="yes"/>
      <point x="328" y="228"/>
      <point x="263" y="298"/>
      <point x="168" y="298" type="curve" smooth="yes"/>
      <point x="74" y="298"/>
      <point x="9" y="227"/>
      <point x="9" y="129" type="curve" smooth="yes"/>
      <point x="9" y="93"/>
      <point x="15" y="52"/>
      <point x="34" y="30" type="curve" smooth="yes"/>
      <point x="57" y="5"/>
      <point x="99" y="1"/>
      <point x="142" y="0" type="curve" smooth="yes"/>
      <point x="210" y="-2"/>
      <point x="207" y="-92"/>
    </contour>
    <contour>
      <point x="92" y="-10" type="curve" smooth="yes"/>
      <point x="143" y="98"/>
      <point x="291" y="372"/>
      <point x="406" y="550" type="curve" smooth="yes"/>
      <point x="443" y="607"/>
      <point x="518" y="558"/>
      <point x="482" y="502" type="curve" smooth="yes"/>
      <point x="369" y="328"/>
      <point x="223" y="58"/>
      <point x="174" y="-48" type="curve" smooth="yes"/>
      <point x="145" y="-109"/>
      <point x="64" y="-71"/>
    </contour>
  </outline>
</glyph>
<glyph name="thorn" format="2">
  <advance width="584"/>
  <unicode hex="00FE"/>
  <outline>
    <contour>
      <point x="1" y="-255" type="curve" smooth="yes"/>
      <point x="-47" y="-231"/>
      <point x="-54" y="-183"/>
      <point x="-54" y="-111" type="curve" smooth="yes"/>
      <point x="-54" y="-14"/>
      <point x="-54" y="65"/>
      <point x="-54" y="130" type="curve" smooth="yes"/>
      <point x="-54" y="281"/>
      <point x="47" y="388"/>
      <point x="185" y="388" type="curve" smooth="yes"/>
      <point x="322" y="388"/>
      <point x="426" y="279"/>
      <point x="426" y="128" type="curve" smooth="yes"/>
      <point x="426" y="-41"/>
      <point x="333" y="-106"/>
      <point x="235" y="-56" type="curve" smooth="yes"/>
      <point x="147" y="-11"/>
      <point x="98" y="116"/>
      <point x="59" y="220" type="curve" smooth="yes"/>
      <point x="35" y="284"/>
      <point x="-77" y="382"/>
      <point x="-43" y="591" type="curve" smooth="yes"/>
      <point x="-33" y="658"/>
      <point x="56" y="644"/>
      <point x="45" y="577" type="curve" smooth="yes"/>
      <point x="19" y="409"/>
      <point x="123" y="304"/>
      <point x="143" y="252" type="curve" smooth="yes"/>
      <point x="170" y="181"/>
      <point x="216" y="55"/>
      <point x="277" y="24" type="curve" smooth="yes"/>
      <point x="319" y="2"/>
      <point x="336" y="54"/>
      <point x="336" y="128" type="curve" smooth="yes"/>
      <point x="336" y="227"/>
      <point x="274" y="298"/>
      <point x="185" y="298" type="curve" smooth="yes"/>
      <point x="95" y="298"/>
      <point x="36" y="229"/>
      <point x="36" y="130" type="curve" smooth="yes"/>
      <point x="36" y="33"/>
      <point x="36" y="-46"/>
      <point x="36" y="-111" type="curve" smooth="yes"/>
      <point x="36" y="-118"/>
      <point x="36" y="-172"/>
      <point x="41" y="-175" type="curve" smooth="yes"/>
      <point x="101" y="-205"/>
      <point x="61" y="-285"/>
    </contour>
  </outline>
</glyph>
<glyph name="OE" format="2">
  <advance width="933"/>
  <unicode hex="0152"/>
  <outline>
    <contour>
      <point x="742" y="219" type="curve" smooth="yes"/>
      <point x="671" y="186"/>
      <point x="630" y="185"/>
      <point x="592" y="185" type="curve" smooth="yes"/>
      <point x="552" y="185"/>
      <point x="520" y="185"/>
      <point x="493" y="185" type="curve" smooth="yes"/>
      <point x="400" y="185"/>
      <point x="370" y="207"/>
      <point x="370" y="298" type="curve" smooth="yes"/>
      <point x="370" y="324"/>
      <point x="370" y="341"/>
      <point x="370" y="356" type="curve" smooth="yes"/>
      <point x="370" y="548"/>
      <point x="580" y="648"/>
      <point x="580" y="476" type="curve" smooth="yes"/>
      <point x="580" y="368"/>
      <point x="580" y="168"/>
      <point x="580" y="125" type="curve" smooth="yes"/>
      <point x="580" y="92"/>
      <point x="586" y="90"/>
      <point x="619" y="90" type="curve" smooth="yes"/>
      <point x="684" y="90"/>
      <point x="710" y="90"/>
      <point x="748" y="90" type="curve" smooth="yes"/>
      <point x="926" y="90"/>
      <point x="806" y="-120"/>
      <point x="628" y="-120" type="curve" smooth="yes"/>
      <point x="470" y="-120"/>
      <point x="343" y="-120"/>
      <point x="238" y="-120" type="curve" smooth="yes"/>
      <point x="53" y="-120"/>
      <point x="-75" y="22"/>
      <point x="-75" y="219" type="curve" smooth="yes"/>
      <point x="-75" y="417"/>
      <point x="51" y="560"/>
      <point x="237" y="560" type="curve" smooth="yes"/>
      <point x="380" y="560"/>
      <point x="496" y="560"/>
      <point x="592" y="560" type="curve" smooth="yes"/>
      <point x="629" y="560"/>
      <point x="663" y="559"/>
      <point x="725" y="586" type="curve" smooth="yes"/>
      <point x="787" y="613"/>
      <point x="823" y="530"/>
      <point x="761" y="504" type="curve" smooth="yes"/>
      <point x="684" y="471"/>
      <point x="637" y="470"/>
      <point x="592" y="470" type="curve" smooth="yes"/>
      <point x="448" y="470"/>
      <point x="333" y="470"/>
      <point x="237" y="470" type="curve" smooth="yes"/>
      <point x="99" y="470"/>
      <point x="15" y="365"/>
      <point x="15" y="219" type="curve" smooth="yes"/>
      <point x="15" y="74"/>
      <point x="101" y="-30"/>
      <point x="238" y="-30" type="curve" smooth="yes"/>
      <point x="395" y="-30"/>
      <point x="522" y="-30"/>
      <point x="628" y="-30" type="curve" smooth="yes"/>
      <point x="636" y="-30"/>
      <point x="756" y="0"/>
      <point x="748" y="0" type="curve" smooth="yes"/>
      <point x="692" y="0"/>
      <point x="662" y="0"/>
      <point x="619" y="0" type="curve" smooth="yes"/>
      <point x="534" y="0"/>
      <point x="490" y="41"/>
      <point x="490" y="125" type="curve" smooth="yes"/>
      <point x="490" y="190"/>
      <point x="490" y="403"/>
      <point x="490" y="476" type="curve" smooth="yes"/>
      <point x="490" y="484"/>
      <point x="460" y="365"/>
      <point x="460" y="356" type="curve" smooth="yes"/>
      <point x="460" y="334"/>
      <point x="460" y="315"/>
      <point x="460" y="298" type="curve" smooth="yes"/>
      <point x="460" y="269"/>
      <point x="463" y="275"/>
      <point x="493" y="275" type="curve" smooth="yes"/>
      <point x="533" y="275"/>
      <point x="565" y="275"/>
      <point x="592" y="275" type="curve" smooth="yes"/>
      <point x="622" y="275"/>
      <point x="649" y="274"/>
      <point x="704" y="301" type="curve" smooth="yes"/>
      <point x="765" y="330"/>
      <point x="803" y="248"/>
    </contour>
  </outline>
</glyph>
<glyph name="circumflex" format="2">
  <advance width="562"/>
  <unicode hex="02C6"/>
  <outline>
    <contour>
      <point x="32" y="540" type="curve" smooth="yes"/>
      <point x="47" y="551"/>
      <point x="62" y="564"/>
      <point x="87" y="586" type="curve" smooth="yes"/>
      <point x="147" y="637"/>
      <point x="178" y="634"/>
      <point x="234" y="586" type="curve" smooth="yes"/>
      <point x="256" y="568"/>
      <point x="265" y="558"/>
      <point x="312" y="548" type="curve" smooth="yes"/>
      <point x="378" y="534"/>
      <point x="360" y="446"/>
      <point x="294" y="460" type="curve" smooth="yes"/>
      <point x="229" y="474"/>
      <point x="208" y="492"/>
      <point x="176" y="518" type="curve" smooth="yes"/>
      <point x="159" y="532"/>
      <point x="164" y="533"/>
      <point x="147" y="518" type="curve" smooth="yes"/>
      <point x="120" y="494"/>
      <point x="103" y="481"/>
      <point x="86" y="468" type="curve" smooth="yes"/>
      <point x="32" y="428"/>
      <point x="-22" y="500"/>
    </contour>
  </outline>
</glyph>
<glyph name="quoteleft" format="2">
  <advance width="274"/>
  <unicode hex="2018"/>
  <outline>
    <contour>
      <point x="78" y="502" type="curve" smooth="yes"/>
      <point x="53" y="460"/>
      <point x="29" y="387"/>
      <point x="55" y="363" type="curve" smooth="yes"/>
      <point x="105" y="318"/>
      <point x="45" y="251"/>
      <point x="-5" y="297" type="curve" smooth="yes"/>
      <point x="-63" y="349"/>
      <point x="-56" y="451"/>
      <point x="0" y="548" type="curve" smooth="yes"/>
      <point x="34" y="606"/>
      <point x="112" y="561"/>
    </contour>
  </outline>
</glyph>
<glyph name="quotesinglbase" format="2">
  <advance width="274"/>
  <unicode hex="201A"/>
  <outline>
    <contour>
      <point x="-44" y="-211" type="curve" smooth="yes"/>
      <point x="-19" y="-169"/>
      <point x="5" y="-96"/>
      <point x="-21" y="-72" type="curve" smooth="yes"/>
      <point x="-71" y="-27"/>
      <point x="-11" y="40"/>
      <point x="39" y="-6" type="curve" smooth="yes"/>
      <point x="97" y="-58"/>
      <point x="90" y="-160"/>
      <point x="34" y="-257" type="curve" smooth="yes"/>
      <point x="0" y="-315"/>
      <point x="-78" y="-270"/>
    </contour>
  </outline>
</glyph>
<glyph name="ellipsis" format="2">
  <advance width="780"/>
  <unicode hex="2026"/>
  <outline>
    <contour>
      <point x="13" y="-125" type="curve" smooth="yes"/>
      <point x="-71" y="-112"/>
      <point x="-71" y="-4"/>
      <point x="13" y="9" type="curve" smooth="yes"/>
      <point x="80" y="18"/>
      <point x="93" y="-71"/>
      <point x="27" y="-81" type="curve" smooth="yes"/>
      <point x="24" y="-81"/>
      <point x="24" y="-35"/>
      <point x="27" y="-35" type="curve" smooth="yes"/>
      <point x="93" y="-45"/>
      <point x="80" y="-134"/>
    </contour>
    <contour>
      <point x="273" y="-125" type="curve" smooth="yes"/>
      <point x="189" y="-112"/>
      <point x="189" y="-4"/>
      <point x="273" y="9" type="curve" smooth="yes"/>
      <point x="340" y="18"/>
      <point x="353" y="-71"/>
      <point x="287" y="-81" type="curve" smooth="yes"/>
      <point x="284" y="-81"/>
      <point x="284" y="-35"/>
      <point x="287" y="-35" type="curve" smooth="yes"/>
      <point x="353" y="-45"/>
      <point x="340" y="-134"/>
    </contour>
    <contour>
      <point x="533" y="-125" type="curve" smooth="yes"/>
      <point x="449" y="-112"/>
      <point x="449" y="-4"/>
      <point x="533" y="9" type="curve" smooth="yes"/>
      <point x="600" y="18"/>
      <point x="613" y="-71"/>
      <point x="547" y="-81" type="curve" smooth="yes"/>
      <point x="544" y="-81"/>
      <point x="544" y="-35"/>
      <point x="547" y="-35" type="curve" smooth="yes"/>
      <point x="613" y="-45"/>
      <point x="600" y="-134"/>
    </contour>
  </outline>
</glyph>
<glyph name="guilsinglleft" format="2">
  <advance width="397"/>
  <unicode hex="2039"/>
  <outline>
    <contour>
      <point x="327" y="425" type="curve" smooth="yes"/>
      <point x="110" y="229" type="line"/>
      <point x="110" y="295" type="line"/>
      <point x="327" y="97" type="line" smooth="yes"/>
      <point x="377" y="52"/>
      <point x="317" y="-15"/>
      <point x="267" y="31" type="curve" smooth="yes"/>
      <point x="50" y="229" type="line" smooth="yes"/>
      <point x="30" y="247"/>
      <point x="30" y="278"/>
      <point x="50" y="295" type="curve" smooth="yes"/>
      <point x="267" y="491" type="line" smooth="yes"/>
      <point x="317" y="537"/>
      <point x="377" y="470"/>
    </contour>
  </outline>
</glyph>
<glyph name="Euro" format="2">
  <advance width="606"/>
  <unicode hex="20AC"/>
  <outline>
    <contour>
      <point x="458" y="-37" type="curve" smooth="yes"/>
      <point x="383" y="-79"/>
      <point x="324" y="-97"/>
      <point x="278" y="-97" type="curve" smooth="yes"/>
      <point x="107" y="-97"/>
      <point x="-17" y="24"/>
      <point x="-17" y="220" type="curve" smooth="yes"/>
      <point x="-17" y="414"/>
      <point x="105" y="537"/>
      <point x="274" y="537" type="curve" smooth="yes"/>
      <point x="314" y="537"/>
      <point x="367" y="539"/>
      <point x="433" y="543" type="curve" smooth="yes"/>
      <point x="501" y="547"/>
      <point x="506" y="457"/>
      <point x="439" y="453" type="curve" smooth="yes"/>
      <point x="371" y="449"/>
      <point x="316" y="447"/>
      <point x="274" y="447" type="curve" smooth="yes"/>
      <point x="151" y="447"/>
      <point x="73" y="360"/>
      <point x="73" y="220" type="curve" smooth="yes"/>
      <point x="73" y="78"/>
      <point x="153" y="-7"/>
      <point x="278" y="-7" type="curve" smooth="yes"/>
      <point x="311" y="-7"/>
      <point x="360" y="11"/>
      <point x="414" y="41" type="curve" smooth="yes"/>
      <point x="473" y="74"/>
      <point x="517" y="-5"/>
    </contour>
    <contour>
      <point x="30" y="425" type="curve" smooth="yes"/>
      <point x="56" y="425"/>
      <point x="142" y="440"/>
      <point x="181" y="420" type="curve" smooth="yes"/>
      <point x="266" y="378"/>
      <point x="202" y="347"/>
      <point x="217" y="337" type="curve" smooth="yes"/>
      <point x="231" y="327"/>
      <point x="244" y="345"/>
      <point x="336" y="345" type="curve" smooth="yes"/>
      <point x="404" y="345"/>
      <point x="404" y="255"/>
      <point x="336" y="255" type="curve" smooth="yes"/>
      <point x="306" y="255"/>
      <point x="211" y="232"/>
      <point x="165" y="263" type="curve" smooth="yes"/>
      <point x="89" y="316"/>
      <point x="157" y="332"/>
      <point x="141" y="340" type="curve" smooth="yes"/>
      <point x="127" y="347"/>
      <point x="102" y="335"/>
      <point x="30" y="335" type="curve" smooth="yes"/>
      <point x="-37" y="335"/>
      <point x="-37" y="425"/>
    </contour>
    <contour>
      <point x="30" y="267" type="curve" smooth="yes"/>
      <point x="55" y="267"/>
      <point x="143" y="282"/>
      <point x="182" y="262" type="curve" smooth="yes"/>
      <point x="262" y="222"/>
      <point x="205" y="188"/>
      <point x="220" y="177" type="curve" smooth="yes"/>
      <point x="228" y="169"/>
      <point x="299" y="193"/>
      <point x="325" y="204" type="curve" smooth="yes"/>
      <point x="387" y="229"/>
      <point x="422" y="146"/>
      <point x="359" y="120" type="curve" smooth="yes"/>
      <point x="254" y="77"/>
      <point x="197" y="79"/>
      <point x="162" y="107" type="curve" smooth="yes"/>
      <point x="93" y="165"/>
      <point x="158" y="173"/>
      <point x="140" y="182" type="curve" smooth="yes"/>
      <point x="127" y="189"/>
      <point x="106" y="177"/>
      <point x="30" y="177" type="curve" smooth="yes"/>
      <point x="-37" y="177"/>
      <point x="-37" y="267"/>
    </contour>
  </outline>
</glyph>
<glyph name="O" format="2">
  <advance width="736"/>
  <outline>
    <contour>
      <point x="416.8472023353505" y="95.52571449574353" type="curve" smooth="yes"/>
      <point x="458.3012167019513" y="105.8946101032025"/>
      <point x="501.3783127095392" y="128.27484367498042"/>
      <point x="528.4957292144048" y="160.9548059555682" type="curve" smooth="yes"/>
      <point x="565.689072307006" y="205.77755111409306"/>
      <point x="585.9738165625699" y="269.15482609622217"/>
      <point x="585.9738187518968" y="341.02618007572494" type="curve" smooth="yes"/>
      <point x="585.9738231692276" y="486.0385884598142"/>
      <point x="502.15197992940773" y="590.0261739986073"/>
      <point x="367.973831941831" y="590.0261739986073" type="curve" smooth="yes"/>
      <point x="239.24579152331822" y="590.0261739986073"/>
      <point x="149.97383131759702" y="485.53378369291335"/>
      <point x="149.97382691564357" y="341.0261770295507" type="curve" smooth="yes"/>
      <point x="149.97382472959933" y="269.2625761864856"/>
      <point x="171.93612881686917" y="206.13452566019018"/>
      <point x="210.0213328805637" y="161.46669218121446" type="curve" smooth="yes"/>
      <point x="238.8077280146897" y="127.70486955422547"/>
      <point x="282.51117139356535" y="104.41390150218234"/>
      <point x="325.02475072526164" y="94.78493661649831" type="curve" smooth="yes"/>
      <point x="398.17204405991856" y="78.21769551202803"/>
      <point x="376.0823892539581" y="-19.31202893418123"/>
      <point x="302.9350959193012" y="-2.744787829710944" type="curve" smooth="yes"/>
      <point x="239.46937585868187" y="11.629659100301792"/>
      <point x="176.89961751895746" y="46.184871984115354"/>
      <point x="133.92630584169967" y="96.5856713819503" type="curve" smooth="yes"/>
      <point x="81.83713709491161" y="157.67790845513372"/>
      <point x="49.973823925788814" y="242.87503697196556"/>
      <point x="49.97382691564362" y="341.0261800757248" type="curve" smooth="yes"/>
      <point x="49.97383311119563" y="544.414153906284"/>
      <point x="186.79488973644777" y="690.0261739986073"/>
      <point x="367.973831941831" y="690.0261739986073" type="curve" smooth="yes"/>
      <point x="555.693787712144" y="690.0261739986073"/>
      <point x="685.9738249318982" y="543.9036447564723"/>
      <point x="685.9738187518968" y="341.0261770295506" type="curve" smooth="yes"/>
      <point x="685.9738157650294" y="242.97311150458268"/>
      <point x="656.1942462058356" y="158.24859101224334"/>
      <point x="605.4518974754707" y="97.09755760759657" type="curve" smooth="yes"/>
      <point x="564.5836553538693" y="47.846088140797384"/>
      <point x="503.5873495378491" y="14.141237652535423"/>
      <point x="441.11264086703545" y="-1.485565739417872" type="curve" smooth="yes"/>
      <point x="368.3541806906644" y="-19.68464463818157"/>
      <point x="344.08874215897947" y="77.32663559697983"/>
    </contour>
  </outline>
</glyph>
<glyph name="U" format="2">
  <advance width="688"/>
  <outline>
    <contour>
      <point x="179.97976760580426" y="640.007144958977" type="curve" smooth="yes"/>
      <point x="179.97474113542617" y="620.8147019064291"/>
      <point x="179.97420586524265" y="586.7509491597809"/>
      <point x="179.97383175807968" y="527.0258625287202" type="curve" smooth="yes"/>
      <point x="179.97207869137074" y="273.0275798233731" type="line" smooth="yes"/>
      <point x="179.97138935102777" y="166.88844766773607"/>
      <point x="246.69967595352156" y="90.02269247864363"/>
      <point x="344.9773043079882" y="90.02269247864362" type="curve" smooth="yes"/>
      <point x="446.75550658727036" y="90.0226924786436"/>
      <point x="507.97138041679983" y="166.5168660126191"/>
      <point x="507.9720721748034" y="273.02824965188546" type="curve" smooth="yes"/>
      <point x="507.9738252414387" y="527.0265208139027" type="line" smooth="yes"/>
      <point x="507.9741119953396" y="571.1786015192235"/>
      <point x="507.97552953012104" y="622.8649095557505"/>
      <point x="507.9792403711846" y="640.0315717554556" type="curve" smooth="yes"/>
      <point x="507.9954527874377" y="715.0315700031726"/>
      <point x="607.9954504510604" y="715.0099534481685"/>
      <point x="607.9792380348073" y="640.0099552004515" type="curve" smooth="yes"/>
      <point x="607.9737080821149" y="614.4279299330512"/>
      <point x="607.9742525644905" y="592.8219942262566"/>
      <point x="607.973825239057" y="527.0258306254888" type="curve" smooth="yes"/>
      <point x="607.9720721726943" y="273.0276001832747" type="line" smooth="yes"/>
      <point x="607.9710107128146" y="109.59246842739441"/>
      <point x="501.1496619568921" y="-9.977307521356394"/>
      <point x="344.9773043079882" y="-9.97730752135638" type="curve" smooth="yes"/>
      <point x="193.34461370640477" y="-9.977307521356366"/>
      <point x="79.97101510922407" y="109.26600239806797"/>
      <point x="79.97207869375254" y="273.0282700117871" type="curve" smooth="yes"/>
      <point x="79.97383176004146" y="527.0264889106713" type="line" smooth="yes"/>
      <point x="79.97415881373975" y="579.2396310172645"/>
      <point x="79.97537677110748" y="623.254828262163"/>
      <point x="79.97977103534302" y="640.0333347993844" type="curve" smooth="yes"/>
      <point x="79.9994134156486" y="715.0333322272304"/>
      <point x="179.99940998610984" y="715.007142386823"/>
    </contour>
  </outline>
</glyph>
<glyph name="circumflex.cap" format="2">
  <advance width="562"/>
  <outline>
    <contour>
      <point x="9" y="701" type="curve" smooth="yes"/>
      <point x="131" y="807" type="line" smooth="yes"/>
      <point x="148" y="822"/>
      <point x="174" y="822"/>
      <point x="191" y="807" type="curve" smooth="yes"/>
      <point x="313" y="701" type="line" smooth="yes"/>
      <point x="363" y="657"/>
      <point x="304" y="589"/>
      <point x="253" y="633" type="curve" smooth="yes"/>
      <point x="131" y="739" type="line"/>
      <point x="191" y="739" type="line"/>
      <point x="69" y="633" type="line" smooth="yes"/>
      <point x="18" y="589"/>
      <point x="-41" y="657"/>
    </contour>
  </outline>
</glyph>
<glyph name="l" format="2">
  <advance width="254"/>
  <outline>
    <contour>
      <point x="76.98079748137796" y="40.00339129928413" type="curve" smooth="yes"/>
      <point x="76.97602163596396" y="55.10676839075114"/>
      <point x="76.97381519602379" y="90.29375521154209"/>
      <point x="76.9738168632689" y="145.02618306097554" type="curve" smooth="yes"/>
      <point x="76.97383093659354" y="607.0261760243131" type="line" smooth="yes"/>
      <point x="76.97383267406651" y="664.0640497609473"/>
      <point x="76.97662880912502" y="690.0409868791925"/>
      <point x="76.98029667973344" y="698.0426348645433" type="curve" smooth="yes"/>
      <point x="77.01467588102246" y="773.042626985013"/>
      <point x="177.01466537498206" y="772.9967880499611"/>
      <point x="176.98028617369306" y="697.9967959294913" type="curve" smooth="yes"/>
      <point x="176.97625612238446" y="689.2050321578278"/>
      <point x="176.97383284563182" y="669.6962020582124"/>
      <point x="176.9738309365935" y="607.0261729781389" type="curve" smooth="yes"/>
      <point x="176.97381686326884" y="145.02618001480135" type="line" smooth="yes"/>
      <point x="176.97381499858642" y="83.81226771795463"/>
      <point x="176.97545107476077" y="56.9269507583547"/>
      <point x="176.98079248192641" y="40.035012341030566" type="curve" smooth="yes"/>
      <point x="177.00450826323623" y="-34.96498390938079"/>
      <point x="77.00451326268778" y="-34.996604951127225"/>
    </contour>
  </outline>
</glyph>
<glyph name="n" format="2">
  <advance width="600"/>
  <outline>
    <contour>
      <point x="436.97800006112817" y="40.01525346168306" type="curve" smooth="yes"/>
      <point x="436.9752035875717" y="60.75788163185057"/>
      <point x="436.97381226162133" y="87.46300744494182"/>
      <point x="436.97381398463426" y="144.02618307620645" type="curve" smooth="yes"/>
      <point x="436.97381925451555" y="317.02618044126575" type="line" smooth="yes"/>
      <point x="436.97382177514044" y="399.7734148436935"/>
      <point x="397.572944083999" y="447.02968521281383"/>
      <point x="334.97600199727134" y="447.0265253061768" type="curve" smooth="yes"/>
      <point x="241.18621831634502" y="447.0217907784179"/>
      <point x="167.0012666599739" y="401.867618317628"/>
      <point x="167.00000345504242" y="271.9995133234394" type="curve" smooth="yes"/>
      <point x="166.99877752126278" y="134.00077931426424" type="line" smooth="yes"/>
      <point x="166.9969126021637" y="-93.10268776984874"/>
      <point x="81.65219654710798" y="3.637124907657959"/>
      <point x="81.63051986455773" y="3.6588015905384665" type="curve" smooth="yes"/>
      <point x="81.61640959020754" y="3.672911865103608"/>
      <point x="66.97381475218697" y="-15.776546138356627"/>
      <point x="66.9738193154391" y="134.02618322851512" type="curve" smooth="yes"/>
      <point x="66.97382760103284" y="406.02617908571824" type="line" smooth="yes"/>
      <point x="66.97382877164496" y="444.4551080540954"/>
      <point x="66.97621240763742" y="478.861735773743"/>
      <point x="66.97906702146462" y="496.0292542006973" type="curve" smooth="yes"/>
      <point x="66.99153801632558" y="571.0292531638593"/>
      <point x="166.99153663387477" y="571.0126251707113"/>
      <point x="166.9790656390138" y="496.0126262075494" type="curve" smooth="yes"/>
      <point x="166.97481164937935" y="470.4293249770711"/>
      <point x="166.97382934549702" y="463.293559787858"/>
      <point x="166.97382760103278" y="406.026176039544" type="curve" smooth="yes"/>
      <point x="166.97381931543904" y="134.02618018234094" type="line" smooth="yes"/>
      <point x="166.97381917070143" y="129.27472330894088"/>
      <point x="152.34075097074654" y="74.36992672166598"/>
      <point x="152.3411985217779" y="74.36947917062781" type="curve" smooth="yes"/>
      <point x="152.34165923603507" y="74.36901845636363"/>
      <point x="66.99873788809306" y="129.17479675126143"/>
      <point x="66.99877752520874" y="134.00166768023817" type="curve" smooth="yes"/>
      <point x="67.00000345977298" y="272.0004860064023" type="line" smooth="yes"/>
      <point x="67.00189112787606" y="466.06866393161226"/>
      <point x="194.8163530621846" y="547.0194501454021"/>
      <point x="334.97095397648496" y="547.0265251787642" type="curve" smooth="yes"/>
      <point x="446.00034813011365" y="547.0321299656404"/>
      <point x="536.9738237253963" y="463.79653066347976"/>
      <point x="536.9738192545155" y="317.0261773950915" type="curve" smooth="yes"/>
      <point x="536.9738139846343" y="144.0261800300322" type="line" smooth="yes"/>
      <point x="536.9738120537222" y="80.63807090913157"/>
      <point x="536.9748652552574" y="63.27417651500223"/>
      <point x="536.9779991523375" y="40.028735232209684" type="curve" smooth="yes"/>
      <point x="536.9881104802324" y="-34.971264086197294"/>
      <point x="436.9881113890231" y="-34.98474585672392"/>
    </contour>
  </outline>
</glyph>
<glyph name="ring.cap" format="2">
  <advance width="420"/>
  <outline>
    <contour>
      <point x="209" y="804" type="curve" smooth="yes"/>
      <point x="238" y="804"/>
      <point x="254" y="816"/>
      <point x="254" y="843" type="curve" smooth="yes"/>
      <point x="254" y="867"/>
      <point x="236" y="877"/>
      <point x="209" y="877" type="curve" smooth="yes"/>
      <point x="183" y="877"/>
      <point x="167" y="867"/>
      <point x="167" y="843" type="curve" smooth="yes"/>
      <point x="167" y="816"/>
      <point x="181" y="804"/>
    </contour>
    <contour>
      <point x="209" y="714" type="curve" smooth="yes"/>
      <point x="129" y="714"/>
      <point x="77" y="768"/>
      <point x="77" y="843" type="curve" smooth="yes"/>
      <point x="77" y="915"/>
      <point x="130" y="967"/>
      <point x="209" y="967" type="curve" smooth="yes"/>
      <point x="290" y="967"/>
      <point x="344" y="915"/>
      <point x="344" y="843" type="curve" smooth="yes"/>
      <point x="344" y="768"/>
      <point x="290" y="714"/>
    </contour>
  </outline>
</glyph>
